<?xml version="1.0" encoding="UTF-8"?>
<svg version="1.1" xmlns="http://www.w3.org/2000/svg" width="2048" height="1024">
<path d="M0 0 C26.4 0 52.8 0 80 0 C93.68124191 33.06300129 93.68124191 33.06300129 97.625 44.1875 C98.52960184 46.69332272 99.43557605 49.19859973 100.34375 51.703125 C100.78460937 52.92064453 101.22546875 54.13816406 101.6796875 55.39257812 C103.7677051 61.09756111 105.93812928 66.76979551 108.125 72.4375 C108.48416504 73.36908936 108.84333008 74.30067871 109.21337891 75.26049805 C111.11872442 80.18439161 113.03929467 85.10217682 114.96704102 90.01733398 C120.17353187 103.29489401 125.32027764 116.59429456 130.42956543 129.9095459 C138.89281565 151.96327304 147.41116175 173.99489373 156 196 C158.66540838 191.51031038 160.87158045 187.15791095 162.75 182.26953125 C163.00021912 181.62305634 163.25043823 180.97658142 163.50823975 180.31051636 C164.34422623 178.14654936 165.17208501 175.97956662 166 173.8125 C166.60660665 172.23719741 167.21371921 170.66208955 167.82128906 169.0871582 C169.15824082 165.61828104 170.49152385 162.14802192 171.82226562 158.67675781 C174.11941768 152.68549451 176.42668528 146.69814818 178.734375 140.7109375 C186.48144717 120.604048 194.20094826 100.48661055 201.90393066 80.36279297 C202.99371786 77.51640815 204.08415218 74.67027211 205.17480469 71.82421875 C205.90822251 69.91016368 206.64162079 67.99610112 207.375 66.08203125 C207.74119446 65.12632233 208.10738892 64.1706134 208.48468018 63.1859436 C211.0269948 56.54804301 213.56115942 49.90706559 216.0925293 43.26498413 C217.94113143 38.41745391 219.79413581 33.57161358 221.64794922 28.72607422 C222.54474294 26.37899438 223.43962018 24.03118132 224.33251953 21.68261719 C225.57095302 18.4258403 226.81595543 15.17164804 228.0625 11.91796875 C228.43246094 10.94018967 228.80242187 9.96241058 229.18359375 8.95500183 C229.52648438 8.06388199 229.869375 7.17276215 230.22265625 6.25463867 C230.51922119 5.47706711 230.81578613 4.69949554 231.12133789 3.89836121 C232 2 232 2 234 0 C236.52976535 -0.1878075 238.94907405 -0.25191906 241.47900391 -0.22705078 C242.24982803 -0.22734283 243.02065216 -0.22763489 243.81483459 -0.22793579 C246.36885745 -0.22653974 248.92259046 -0.21096579 251.4765625 -0.1953125 C253.24490194 -0.19158334 255.01324345 -0.18873591 256.78158569 -0.18673706 C261.44069095 -0.17909293 266.09967194 -0.15943778 270.75872803 -0.1373291 C275.51100992 -0.11688744 280.26331184 -0.10773894 285.015625 -0.09765625 C294.34380466 -0.07619259 303.67189201 -0.04204728 313 0 C312.48547823 3.45302889 311.93024811 6.61817012 310.57983398 9.84179688 C310.2905452 10.54109314 310.00125641 11.2403894 309.70320129 11.96087646 C309.3873558 12.70597473 309.07151031 13.451073 308.74609375 14.21875 C308.41401413 15.01621643 308.08193451 15.81368286 307.73979187 16.63531494 C306.64517342 19.25949351 305.54144082 21.87973109 304.4375 24.5 C303.66273646 26.35167378 302.88849298 28.20356523 302.11474609 30.05566406 C300.12991991 34.80185394 298.13723453 39.54469658 296.1416626 44.28637695 C295.07139276 46.83030623 294.00279154 49.37492695 292.93505859 51.91992188 C287.14813583 65.71289111 281.32858556 79.4920294 275.5045929 93.26937866 C273.4818767 98.05443709 271.45952893 102.83965111 269.4375 107.625 C268.83281387 109.05601044 268.83281387 109.05601044 268.21591187 110.51593018 C262.00525282 125.2170178 255.84237113 139.93728678 249.71429443 154.67295837 C249.26017181 155.76490257 249.26017181 155.76490257 248.796875 156.87890625 C248.49267639 157.61037369 248.18847778 158.34184113 247.87506104 159.09547424 C243.99390453 168.42396012 240.09037666 177.74308588 236.1875 187.0625 C235.62251297 188.41169525 235.62251297 188.41169525 235.04611206 189.78814697 C233.13036297 194.36290696 231.21441026 198.93758162 229.29833984 203.51220703 C225.90380031 211.61697818 222.51116633 219.72254698 219.1184082 227.82806396 C217.26259327 232.26170348 215.40669336 236.69530741 213.55078125 241.12890625 C213.18220001 242.0094165 212.81361877 242.88992676 212.43386841 243.79711914 C210.05342868 249.48371441 207.6727626 255.17021488 205.29196167 260.85665894 C203.65170251 264.77437227 202.01151747 268.69211663 200.37133789 272.60986328 C199.59403108 274.46648682 198.81668848 276.32309537 198.03930664 278.1796875 C197.30653947 279.92973244 196.57388027 281.6798226 195.84133911 283.42996216 C195.15386894 285.07172168 194.46579982 286.71323056 193.77706909 288.35446167 C192.31852847 291.83275893 190.86745425 295.31314095 189.45166016 298.80908203 C189.00999512 299.89431152 188.56833008 300.97954102 188.11328125 302.09765625 C187.74630127 303.01168213 187.37932129 303.92570801 187.0012207 304.86743164 C186 307 186 307 184 309 C181.73635864 309.26742554 181.73635864 309.26742554 178.87939453 309.29052734 C177.81133575 309.30328705 176.74327698 309.31604675 175.64285278 309.32919312 C174.48453949 309.33141876 173.3262262 309.33364441 172.1328125 309.3359375 C170.94654266 309.3425943 169.76027283 309.3492511 168.53805542 309.35610962 C166.02457229 309.36625071 163.51106216 309.37092619 160.99755859 309.37060547 C157.14766093 309.37497428 153.29891306 309.41126888 149.44921875 309.44921875 C147.0104206 309.45508736 144.57161699 309.45905646 142.1328125 309.4609375 C140.97854767 309.47530853 139.82428284 309.48967957 138.63504028 309.50448608 C137.56067719 309.49833282 136.48631409 309.49217957 135.37939453 309.48583984 C134.43500519 309.48868988 133.49061584 309.49153992 132.51760864 309.49447632 C129.22844762 308.8484616 128.08835272 307.56993468 126 305 C124.7971169 302.60481688 123.74203087 300.28459549 122.7421875 297.80859375 C122.44201721 297.08860199 122.14184692 296.36861023 121.83258057 295.62680054 C120.83749276 293.23407792 119.85641384 290.83585992 118.875 288.4375 C118.1688103 286.73290064 117.46159472 285.02872597 116.75341797 283.32495117 C115.25745827 279.7227438 113.76659081 276.11848895 112.27929688 272.51269531 C110.0628528 267.1444119 107.82436717 261.78556117 105.578125 256.4296875 C105.21277145 255.55851791 104.84741791 254.68734833 104.47099304 253.78977966 C103.72937725 252.02172027 102.9876931 250.25368954 102.24594116 248.48568726 C100.34998836 243.96427521 98.45821748 239.44111489 96.56640625 234.91796875 C96.18861526 234.01482437 95.81082428 233.11167999 95.42158508 232.1811676 C93.16088179 226.77646502 90.90107549 221.37138789 88.64160156 215.96617126 C80.23609028 195.85954459 71.79970494 175.76647977 63.31359863 155.69372559 C56.55276964 139.70046413 49.83287554 123.69036258 43.13671875 107.66992188 C36.93167064 92.8246118 30.69563094 77.99279375 24.4140625 63.1796875 C9.59468266 28.22584787 9.59468266 28.22584787 3.8125 13.9375 C3.40918457 12.95313965 3.00586914 11.9687793 2.59033203 10.95458984 C2.23696777 10.07109863 1.88360352 9.18760742 1.51953125 8.27734375 C1.22151611 7.53734131 0.92350098 6.79733887 0.61645508 6.03491211 C0 4 0 4 0 0 Z " fill="#478AC9" transform="translate(1191,304)"/>
<path d="M0 0 C0.86044922 0.70962891 0.86044922 0.70962891 1.73828125 1.43359375 C1.11252837 5.97682036 -0.70445522 9.72184588 -2.76171875 13.76171875 C-3.11361771 14.46432327 -3.46551666 15.1669278 -3.82807922 15.89082336 C-4.96614882 18.15840987 -6.11322638 20.42127044 -7.26171875 22.68359375 C-8.04336868 24.23030865 -8.82486276 25.77710232 -9.60620117 27.32397461 C-11.13340206 30.34367137 -12.66527351 33.3609346 -14.20068359 36.37646484 C-15.90057323 39.71667872 -17.57889792 43.06715099 -19.25 46.421875 C-20.02345526 47.94726649 -20.79803474 49.47208896 -21.57421875 50.99609375 C-21.90357422 51.66608398 -22.23292969 52.33607422 -22.57226562 53.02636719 C-24.75429253 57.2273432 -24.75429253 57.2273432 -27.15014648 58.20117188 C-30.88151758 58.61188586 -33.87723228 56.1852762 -37.01171875 54.37109375 C-45.19300653 49.85246641 -53.37027879 46.29731305 -62.26171875 43.43359375 C-62.89899902 43.22331543 -63.5362793 43.01303711 -64.19287109 42.79638672 C-78.56631003 38.19002961 -95.66693119 36.75499526 -109.93359375 42.51171875 C-116.510316 46.22039671 -120.80507705 50.06366865 -123.26171875 57.43359375 C-124.07160296 63.51551265 -124.50239244 69.58935857 -120.88671875 74.80859375 C-114.02517612 82.14706439 -104.97499611 86.94275678 -96.13671875 91.49609375 C-95.07702881 92.04700684 -94.01733887 92.59791992 -92.92553711 93.16552734 C-84.72437509 97.35252641 -76.37251642 101.05964077 -67.90649414 104.67047119 C-55.39490404 110.00685727 -43.40556574 115.53244762 -32.26171875 123.43359375 C-31.34084473 124.08376465 -31.34084473 124.08376465 -30.40136719 124.74707031 C-11.16573327 138.57748086 4.92849275 155.40618506 10.34765625 179.09765625 C13.43264382 205.44345013 8.90302562 233.59551181 -7.51660156 255.07519531 C-25.99548284 277.77938872 -55.12352014 288.89150823 -83.54931641 292.12011719 C-105.23414769 293.95119198 -127.01363635 293.25039012 -148.26171875 288.43359375 C-149.40157227 288.19334473 -149.40157227 288.19334473 -150.56445312 287.94824219 C-173.24463882 283.16651996 -206.21213474 271.09392248 -221.26171875 252.43359375 C-220.20066693 242.11640027 -212.39094769 232.49484555 -207.07421875 223.87109375 C-205.5525147 221.39716172 -204.03300339 218.9219 -202.515625 216.4453125 C-202.14541229 215.84151764 -201.77519958 215.23772278 -201.39376831 214.6156311 C-199.22259392 211.05838392 -197.12665086 207.47033652 -195.1015625 203.828125 C-194.65385498 203.02898682 -194.20614746 202.22984863 -193.74487305 201.40649414 C-192.94529364 199.96516163 -192.16058038 198.51544161 -191.39379883 197.05639648 C-190.33984375 195.16796875 -190.33984375 195.16796875 -188.26171875 192.43359375 C-185.77734375 191.79296875 -185.77734375 191.79296875 -183.26171875 192.43359375 C-181.04296875 193.90234375 -181.04296875 193.90234375 -178.76171875 195.93359375 C-163.64807814 208.53197154 -143.51177053 219.02662965 -124.26171875 223.43359375 C-122.823125 223.76423828 -122.823125 223.76423828 -121.35546875 224.1015625 C-107.2968712 226.9789403 -90.99280182 225.83220813 -78.5078125 218.25 C-73.95872468 214.57117246 -71.09816505 209.94293264 -69.26171875 204.43359375 C-68.61914569 196.73325102 -68.3407644 189.71997774 -73.26171875 183.43359375 C-86.88516223 167.86849127 -109.96084926 160.12349134 -128.26171875 151.43359375 C-153.56248308 139.38876466 -179.32788084 123.57591174 -190.26953125 96.26171875 C-190.59695312 95.3284375 -190.924375 94.39515625 -191.26171875 93.43359375 C-191.65101563 92.3765625 -192.0403125 91.31953125 -192.44140625 90.23046875 C-199.18367875 69.12018105 -195.73423257 44.92776221 -186.62890625 24.9921875 C-174.22917166 1.78696991 -151.19454881 -15.78153923 -126.26171875 -23.56640625 C-86.15573683 -35.04291258 -33.11732507 -25.78025457 0 0 Z " fill="#478AC9" transform="translate(320.26171875,325.56640625)"/>
<path d="M0 0 C21.05314809 18.42515457 30.91583666 40.98471148 33.00390625 68.52734375 C34.11585891 96.17009666 25.89575328 121.09050859 7.12890625 141.46484375 C-6.81685204 156.06313415 -23.64877425 166.01493267 -42.99609375 171.52734375 C-44.09727539 171.84493652 -44.09727539 171.84493652 -45.22070312 172.16894531 C-57.44453948 175.50223863 -69.65846517 175.91586907 -82.24609375 175.96484375 C-83.37526718 175.97423981 -83.37526718 175.97423981 -84.5272522 175.98382568 C-101.42958947 176.07272838 -117.04842018 173.14011822 -132.99609375 167.52734375 C-134.04410156 167.15867187 -135.09210938 166.79 -136.171875 166.41015625 C-148.77253513 161.57016759 -159.36467027 153.88888496 -168.99609375 144.52734375 C-170.02283203 143.59341797 -170.02283203 143.59341797 -171.0703125 142.640625 C-189.19614953 125.65432979 -197.07825252 101.84554707 -197.99609375 77.52734375 C-198.30504752 49.13118236 -189.43415336 25.36608707 -169.99609375 4.52734375 C-123.99820249 -38.76886414 -48.17749694 -39.76056788 0 0 Z M-117.43359375 46.02734375 C-126.12583326 57.07425333 -127.05203122 69.42296904 -125.75390625 83.07421875 C-123.91733361 93.34403313 -118.36357324 103.26919549 -109.99609375 109.52734375 C-97.59113374 116.92737316 -84.7524578 119.66646248 -70.5390625 116.83984375 C-58.98953179 113.28158012 -49.33588844 106.37774158 -43.421875 95.6796875 C-38.09995654 84.34964333 -36.87526424 71.10414679 -40.62109375 59.02734375 C-45.07634243 47.66413108 -52.74752291 38.60999744 -63.87890625 33.31640625 C-83.18700894 26.1203975 -103.45177215 30.7139201 -117.43359375 46.02734375 Z " fill="#468AC9" transform="translate(1672.99609375,442.47265625)"/>
<path d="M0 0 C0.99515625 0.46277344 1.9903125 0.92554688 3.015625 1.40234375 C9.99442488 4.92098447 15.48603508 9.4954768 21 15 C21.6496875 15.63808594 22.299375 16.27617187 22.96875 16.93359375 C35.75898877 30.42505175 38.16427944 47.64169224 38.11352539 65.37084961 C38.11324298 66.72161863 38.11340231 68.07238781 38.1139679 69.42315674 C38.11425377 73.07346584 38.10839106 76.7237418 38.10139394 80.37404323 C38.09512536 84.19504422 38.09455383 88.01604605 38.09336853 91.83705139 C38.09026553 99.06522449 38.08206607 106.29338239 38.07201904 113.52154881 C38.06082584 121.75371686 38.05533938 129.98588565 38.05032361 138.21805942 C38.03988257 155.14538173 38.02230315 172.07268925 38 189 C29.4119428 189.02312635 20.82389851 189.04091658 12.23581791 189.05181217 C8.248428 189.05704036 4.26105933 189.06413684 0.27368164 189.07543945 C-3.57125114 189.08627061 -7.41616345 189.09227732 -11.26111031 189.09487724 C-12.73118983 189.09673108 -14.20126818 189.10035091 -15.67133904 189.10573006 C-17.72354467 189.11294355 -19.77566467 189.11399081 -21.82788086 189.11352539 C-22.99814316 189.115746 -24.16840546 189.11796661 -25.37413025 189.12025452 C-28 189 -28 189 -29 188 C-29.1010811 186.59770852 -29.13350879 185.1903922 -29.13803101 183.7844696 C-29.14348434 182.87487991 -29.14893768 181.96529022 -29.15455627 181.02813721 C-29.1555986 180.02200378 -29.15664093 179.01587036 -29.15771484 177.97924805 C-29.16279556 176.92548477 -29.16787628 175.8717215 -29.17311096 174.786026 C-29.18384459 172.4871931 -29.19245292 170.18834954 -29.19923019 167.88950157 C-29.21099425 164.24413439 -29.23044485 160.59888703 -29.25234985 156.9535675 C-29.31402025 146.58489006 -29.36786355 136.21622169 -29.40136719 125.84741211 C-29.42239404 119.51136602 -29.4577726 113.17553297 -29.50212479 106.83960915 C-29.51623374 104.42968073 -29.52499562 102.01971455 -29.52817917 99.60974693 C-29.53312562 96.22097132 -29.5563835 92.83275288 -29.58349609 89.4440918 C-29.58048996 88.46022491 -29.57748383 87.47635803 -29.5743866 86.462677 C-29.72004267 74.11206049 -32.77629938 61.9669301 -41.15234375 52.60546875 C-49.30551956 45.52099675 -58.62465439 44.37155049 -69 45 C-80.69148755 46.80250657 -89.07996734 54.8167096 -96 64 C-99.04461583 69.26750143 -100.11360394 74.81850271 -100.15148926 80.84649658 C-100.15983292 81.79431 -100.16817657 82.74212341 -100.17677307 83.71865845 C-100.18095749 84.74639374 -100.18514191 85.77412903 -100.18945312 86.83300781 C-100.19774643 87.92453156 -100.20603973 89.0160553 -100.21458435 90.14065552 C-100.23196191 92.50709853 -100.24713495 94.87355852 -100.26036072 97.24002838 C-100.28139725 100.97929874 -100.30841656 104.71848312 -100.33703613 108.45770264 C-100.40176546 117.06411511 -100.45772865 125.67057706 -100.51302338 134.27705383 C-100.56787373 142.80321807 -100.62649024 151.32933904 -100.69187927 159.8554306 C-100.71854603 163.54986685 -100.73930022 167.24430732 -100.7598877 170.93878174 C-100.77648087 173.18738011 -100.79335183 175.43597646 -100.81054688 177.68457031 C-100.81473129 178.72040253 -100.81891571 179.75623474 -100.82322693 180.82345581 C-100.83157059 181.75998993 -100.83991425 182.69652405 -100.84851074 183.66143799 C-100.85366447 184.47994862 -100.85881821 185.29845924 -100.86412811 186.14177322 C-101 188 -101 188 -102 189 C-104.01420724 189.09935 -106.03192852 189.12799507 -108.04858398 189.12939453 C-109.34340195 189.13254669 -110.63821991 189.13569885 -111.97227478 189.13894653 C-113.39688145 189.13715657 -114.8214878 189.13510557 -116.24609375 189.1328125 C-117.6971895 189.13348564 -119.14828513 189.13445576 -120.59938049 189.13571167 C-123.64512197 189.13718862 -126.69083418 189.13503451 -129.73657227 189.13037109 C-133.64530746 189.12467886 -137.55397391 189.12794961 -141.46270657 189.13394356 C-144.46092753 189.13755358 -147.45913214 189.13640846 -150.45735359 189.13381577 C-151.89869253 189.13314746 -153.34003294 189.13397158 -154.78137016 189.13629532 C-156.79492032 189.13882846 -158.80847567 189.13428449 -160.82202148 189.12939453 C-162.54291237 189.12820114 -162.54291237 189.12820114 -164.29856873 189.12698364 C-167 189 -167 189 -169 188 C-169.02333177 163.26162004 -169.04098055 138.52324172 -169.05181217 113.78485298 C-169.05697454 102.29911049 -169.06401611 90.81337483 -169.07543945 79.32763672 C-169.0853881 69.31990393 -169.09185386 59.31217607 -169.09408849 49.30443847 C-169.09539529 44.00251458 -169.09847921 38.70060483 -169.10573006 33.39868546 C-169.11249311 28.41328155 -169.11461637 23.42789768 -169.11310768 18.44248962 C-169.11338388 16.60823839 -169.11538732 14.77398651 -169.11920547 12.93973923 C-169.12414716 10.44434908 -169.1229965 7.94903555 -169.12025452 5.4536438 C-169.12316736 4.72018931 -169.1260802 3.98673481 -169.12908131 3.23105443 C-169.11412121 -1.77175758 -169.11412121 -1.77175758 -168 -4 C-160.67287075 -5.20614718 -153.35121342 -5.14560817 -145.94140625 -5.1328125 C-144.71590561 -5.13376923 -143.49040497 -5.13472595 -142.22776794 -5.13571167 C-139.65355375 -5.13638901 -137.07933781 -5.13456598 -134.50512695 -5.13037109 C-130.55090558 -5.1249842 -126.59679614 -5.1303477 -122.64257812 -5.13671875 C-120.13802058 -5.13605852 -117.63346311 -5.13477851 -115.12890625 -5.1328125 C-113.34934288 -5.13584885 -113.34934288 -5.13584885 -111.53382874 -5.13894653 C-109.895886 -5.13421829 -109.895886 -5.13421829 -108.22485352 -5.12939453 C-107.2616066 -5.12859894 -106.29835968 -5.12780334 -105.30592346 -5.12698364 C-103 -5 -103 -5 -101 -4 C-100.68758545 -1.28553021 -100.48663408 1.33909361 -100.375 4.0625 C-100.33632813 4.82111328 -100.29765625 5.57972656 -100.2578125 6.36132812 C-100.16326438 8.24047195 -100.08053244 10.12020336 -100 12 C-99.51273438 11.67128906 -99.02546875 11.34257812 -98.5234375 11.00390625 C-96.98019158 9.96852853 -95.43281428 8.93929879 -93.8828125 7.9140625 C-91.82612864 6.5485136 -89.78037479 5.1664432 -87.7421875 3.7734375 C-80.17148298 -1.33233659 -72.78786219 -5.26956762 -64 -8 C-63.21882812 -8.24492187 -62.43765625 -8.48984375 -61.6328125 -8.7421875 C-41.36356765 -13.86210056 -18.49531983 -8.66154062 0 0 Z " fill="#478AC9" transform="translate(755,424)"/>
<path d="M0 0 C20.52097291 17.52776924 30.45786256 40.93464092 32.97265625 67.5390625 C33.90924162 85.66589177 33.90924162 85.66589177 31.97265625 89.5390625 C-13.56734375 89.8690625 -59.10734375 90.1990625 -106.02734375 90.5390625 C-102.23313581 107.62360137 -102.23313581 107.62360137 -90.46484375 119.1015625 C-77.52074367 126.90247452 -62.35020389 128.3883469 -47.83984375 124.9765625 C-39.37757312 122.79507064 -33.64083839 118.7499532 -27.1875 113.015625 C-26.22714844 112.17773438 -25.26679688 111.33984375 -24.27734375 110.4765625 C-23.41625 109.68121094 -22.55515625 108.88585937 -21.66796875 108.06640625 C-19.02734375 106.5390625 -19.02734375 106.5390625 -16.44140625 107.16674805 C-12.11052886 108.90758484 -7.94373643 110.89895743 -3.76171875 112.96875 C-2.88710999 113.40035431 -2.01250122 113.83195862 -1.11138916 114.27664185 C0.72861044 115.18722978 2.56747868 116.10010702 4.40527344 117.01513672 C7.22167148 118.41357353 10.04614059 119.79472577 12.87109375 121.17578125 C14.66068029 122.06404917 16.44976094 122.95333719 18.23828125 123.84375 C19.08408752 124.25430634 19.9298938 124.66486267 20.80133057 125.08786011 C21.58264343 125.48151764 22.3639563 125.87517517 23.16894531 126.28076172 C24.20103119 126.79133621 24.20103119 126.79133621 25.25396729 127.31222534 C27.3289765 128.79341156 28.01627456 130.20684355 28.97265625 132.5390625 C24.64996314 139.55708191 19.62032646 145.55153249 13.97265625 151.5390625 C13.41964844 152.15652344 12.86664062 152.77398438 12.296875 153.41015625 C-4.66250822 171.63202458 -31.38565012 180.27991362 -55.64941406 181.76000977 C-59.46564825 181.87779786 -63.27180934 181.91930411 -67.08984375 181.9140625 C-67.76443634 181.91351868 -68.43902893 181.91297485 -69.13406372 181.91241455 C-101.78150753 181.79204555 -127.72459549 170.28792954 -150.83764648 147.16552734 C-170.72780919 126.54292743 -176.51421061 101.92056111 -176.2421875 73.984375 C-176.06846938 66.51989079 -175.09854845 59.73816915 -173.02734375 52.5390625 C-172.516875 50.68667969 -172.516875 50.68667969 -171.99609375 48.796875 C-167.75463127 34.78285369 -161.15624039 24.08682329 -151.02734375 13.5390625 C-150.06077586 12.35825534 -149.10160724 11.17132517 -148.15234375 9.9765625 C-112.87449295 -31.19703871 -40.89445746 -33.43845735 0 0 Z M-96.99609375 33.10546875 C-101.87536162 38.95120699 -102.95306198 44.01909008 -104.02734375 51.5390625 C-81.25734375 51.5390625 -58.48734375 51.5390625 -35.02734375 51.5390625 C-33.6412795 47.38086976 -34.79724021 45.31511635 -36.47265625 41.375 C-40.64755383 33.75948331 -46.64292856 27.27885614 -54.82421875 24.125 C-69.92098837 20.1099017 -85.61321224 21.85193817 -96.99609375 33.10546875 Z " fill="#478AC9" transform="translate(525.02734375,436.4609375)"/>
<path d="M0 0 C10.04872288 -0.18563437 20.09703577 -0.32764429 30.1471262 -0.41449738 C34.81427781 -0.45619069 39.48025363 -0.51270788 44.14672852 -0.60351562 C48.65315679 -0.69065675 53.1584568 -0.73831818 57.66566277 -0.75901794 C59.38215838 -0.77376201 61.09859449 -0.80255619 62.81460762 -0.84584045 C76.24602912 -1.17105295 76.24602912 -1.17105295 80.54959106 1.70225525 C82.34382643 3.72116751 83.66430908 5.6604177 85 8 C85.95868851 9.26303922 86.93063928 10.51624576 87.921875 11.75390625 C88.8678672 13.02099241 89.81050658 14.29058777 90.75 15.5625 C91.25587646 16.23998291 91.76175293 16.91746582 92.28295898 17.61547852 C94.92703989 21.16513969 97.53667861 24.7370028 100.11328125 28.3359375 C100.60924805 29.02486084 101.10521484 29.71378418 101.61621094 30.42358398 C102.56243608 31.74117534 103.50217735 33.06345347 104.43457031 34.39086914 C107.01923973 38.07187877 107.01923973 38.07187877 111 40 C114.42694294 36.68708843 117.43752119 33.29926152 120.3125 29.5 C120.92242798 28.69804199 120.92242798 28.69804199 121.54467773 27.87988281 C122.47992192 26.64962872 123.41347603 25.41808874 124.34570312 24.18554688 C127.01191087 20.66313074 129.68930603 17.14924176 132.3659668 13.63476562 C133.82171791 11.72288887 135.27632211 9.81013824 136.72973633 7.89648438 C137.73170044 6.57874023 137.73170044 6.57874023 138.75390625 5.234375 C139.35533447 4.44256836 139.9567627 3.65076172 140.57641602 2.83496094 C142 1 142 1 143 0 C145.43396019 -0.09498646 147.83942952 -0.12558417 150.27368164 -0.11352539 C151.03460617 -0.11367142 151.7955307 -0.11381744 152.57951355 -0.1139679 C155.10642298 -0.11326862 157.63325962 -0.10547555 160.16015625 -0.09765625 C161.9075059 -0.09579212 163.65485607 -0.0943682 165.40220642 -0.09336853 C170.01031934 -0.08954293 174.61840095 -0.07971229 179.22650146 -0.06866455 C183.92508521 -0.05845134 188.62367399 -0.0538711 193.32226562 -0.04882812 C202.54819087 -0.03809005 211.77409284 -0.02101313 221 0 C220.29885616 3.06919063 219.49680952 4.9842257 217.55078125 7.4765625 C217.0395874 8.13793213 216.52839355 8.79930176 216.00170898 9.48071289 C215.16555054 10.54213501 215.16555054 10.54213501 214.3125 11.625 C213.44443726 12.74346313 213.44443726 12.74346313 212.55883789 13.88452148 C210.71215794 16.26130604 208.85662811 18.63098132 207 21 C204.64387397 24.01930809 202.29071273 27.0409211 199.9375 30.0625 C199.05928589 31.18809326 199.05928589 31.18809326 198.16333008 32.33642578 C193.88818759 37.82600983 189.70107624 43.37593157 185.54321289 48.95458984 C181.71377117 54.07955462 177.80882406 59.14231226 173.875 64.1875 C173.2881543 64.94047363 172.70130859 65.69344727 172.09667969 66.46923828 C169.87970609 69.31210062 167.66169054 72.15413824 165.44042969 74.99365234 C164.04044315 76.78498826 162.64473948 78.57957765 161.25 80.375 C160.47140625 81.37273437 159.6928125 82.37046875 158.890625 83.3984375 C155.7611988 87.49221915 155.7611988 87.49221915 155.1328125 92.40625 C156.213968 95.63997637 157.79062094 97.79995025 159.875 100.5 C160.27428711 101.01916992 160.67357422 101.53833984 161.08496094 102.07324219 C164.47796129 106.4394084 168.03635085 110.66245008 171.63037109 114.86352539 C179.51770571 124.0844476 187.11209702 133.5488027 194.5625 143.125 C198.25104923 147.8636867 202.06579963 152.46345215 206 157 C211.90928239 163.81752396 217.49289056 170.85558837 223 178 C223.47840332 178.61955566 223.95680664 179.23911133 224.44970703 179.87744141 C227.30712295 183.5793761 230.15677577 187.28715622 233 191 C232.67 191.66 232.34 192.32 232 193 C221.78611099 193.09270686 211.57232219 193.16376852 201.35809803 193.20724869 C196.615127 193.22811776 191.87244396 193.25642292 187.12963867 193.30175781 C182.55198526 193.34523992 177.97460875 193.36914223 173.39676476 193.37950897 C171.65084156 193.38689611 169.90493341 193.40132158 168.15912819 193.42292023 C165.71227982 193.45198629 163.26657349 193.45595476 160.81958008 193.45410156 C160.09884811 193.46848267 159.37811615 193.48286377 158.63554382 193.49768066 C153.79692202 193.45806443 151.4143593 192.39616017 148 189 C146.1484375 186.6953125 146.1484375 186.6953125 144.375 184.125 C141.3134619 179.80114862 138.16305377 175.58895072 134.875 171.4375 C133.94524125 170.26177509 133.01555645 169.0859917 132.0859375 167.91015625 C131.35068848 166.98033936 131.35068848 166.98033936 130.60058594 166.03173828 C127.55002944 162.1594486 124.52587396 158.26658615 121.5 154.375 C120.60063721 153.21955688 120.60063721 153.21955688 119.68310547 152.04077148 C119.11736816 151.31317627 118.55163086 150.58558105 117.96875 149.8359375 C117.46794922 149.19188965 116.96714844 148.5478418 116.45117188 147.88427734 C114.95025883 145.93541346 113.47177581 143.97093306 112 142 C108.92716266 142.28503695 108.01947082 142.97845084 105.9140625 145.30859375 C104.78097656 146.85740234 104.78097656 146.85740234 103.625 148.4375 C102.7406193 149.62837421 101.85514001 150.8184331 100.96875 152.0078125 C100.49308594 152.65137695 100.01742188 153.29494141 99.52734375 153.95800781 C96.78642118 157.62250212 93.94749618 161.21073009 91.125 164.8125 C85.93223653 171.46264466 80.82785584 178.17240585 75.81884766 184.9621582 C74.56329817 186.65448752 73.28309755 188.32846068 72 190 C71.60868896 190.55282654 71.21737793 191.10565308 70.81420898 191.67523193 C67.9662321 193.75487593 64.93821529 193.40022214 61.546875 193.35644531 C60.79047729 193.35848969 60.03407959 193.36053406 59.25476074 193.36264038 C56.75292839 193.36564998 54.25175409 193.34716581 51.75 193.328125 C50.01269697 193.32506745 48.2753915 193.3231913 46.53808594 193.32244873 C42.896389 193.31784448 39.25491304 193.30341433 35.61328125 193.28125 C30.94241164 193.2529676 26.27171614 193.24203853 21.60076904 193.2375679 C18.01316583 193.2334131 14.4255979 193.2235951 10.8380127 193.21169281 C9.11560346 193.20599065 7.39319084 193.20123176 5.67077637 193.19742584 C3.26483187 193.19055926 0.8590254 193.17692486 -1.546875 193.16113281 C-2.26073364 193.16001495 -2.97459229 193.15889709 -3.71008301 193.15774536 C-6.74950998 193.13129244 -9.09197805 192.96934065 -12 192 C-10.31803261 187.91948739 -7.44813386 184.88771057 -4.5625 181.625 C-0.38182565 176.82898284 3.66667902 171.96769031 7.5625 166.9375 C11.10743371 162.36564827 14.73627391 157.8935714 18.5 153.5 C22.28193622 149.08427223 25.93267348 144.59081778 29.5 140 C33.57104431 134.76175352 37.7734098 129.66219038 42.08154297 124.61767578 C45.47881057 120.6348827 48.7715052 116.58218583 52.0234375 112.48046875 C54.95272128 108.80439128 57.93870435 105.1753546 60.921875 101.54296875 C61.95054688 100.28419922 61.95054688 100.28419922 63 99 C63.76828125 98.17113281 64.5365625 97.34226562 65.328125 96.48828125 C67.20409356 94.1722869 67.20409356 94.1722869 67.07421875 91.63671875 C65.54857151 87.89194825 63.29362388 84.98376117 60.8125 81.8125 C60.27858643 81.11543945 59.74467285 80.41837891 59.19458008 79.70019531 C57.47315391 77.45877835 55.7384057 75.22826738 54 73 C53.44022461 72.28054199 52.88044922 71.56108398 52.30371094 70.81982422 C50.01499086 67.87841472 47.72535158 64.93775689 45.42944336 62.00195312 C40.34742756 55.49007732 35.40464064 48.87919949 30.4699707 42.25537109 C26.69993625 37.21328728 22.84544351 32.26037755 18.875 27.375 C14.32879232 21.76785542 9.99488846 16.02610375 5.75 10.1875 C5.17620605 9.40358887 4.60241211 8.61967773 4.01123047 7.81201172 C3.48674316 7.08385254 2.96225586 6.35569336 2.421875 5.60546875 C1.95362305 4.95731201 1.48537109 4.30915527 1.00292969 3.64135742 C0 2 0 2 0 0 Z " fill="#478AC9" transform="translate(1725,420)"/>
<path d="M0 0 C22.11 0 44.22 0 67 0 C67.33 23.1 67.66 46.2 68 70 C80.04171593 69.92089062 80.04171593 69.92089062 92.08325195 69.81982422 C93.59325885 69.8139828 95.10326889 69.80888641 96.61328125 69.8046875 C97.39682983 69.79445557 98.18037842 69.78422363 98.9876709 69.77368164 C102.86099237 69.7724348 104.69968679 69.7997912 108 72 C108.3742218 73.99789429 108.3742218 73.99789429 108.37231445 76.47802734 C108.37854324 77.40594086 108.38477203 78.33385437 108.39118958 79.28988647 C108.37737495 80.79768173 108.37737495 80.79768173 108.36328125 82.3359375 C108.36402901 83.88228378 108.36402901 83.88228378 108.36479187 85.45986938 C108.36244813 87.64383874 108.3527021 89.82781062 108.33618164 92.01171875 C108.31264496 95.35441289 108.31561166 98.69630689 108.32226562 102.0390625 C108.31668716 104.15885892 108.30957623 106.27865198 108.30078125 108.3984375 C108.30169266 109.39958588 108.30260406 110.40073425 108.30354309 111.43222046 C108.29401108 112.36643829 108.28447906 113.30065613 108.2746582 114.26318359 C108.27005081 115.08321869 108.26544342 115.90325378 108.26069641 116.74813843 C108 119 108 119 106 123 C93.46 123.33 80.92 123.66 68 124 C67.95789589 131.99978034 67.91784401 139.99915217 67.89649963 147.99894714 C67.8860004 151.72542125 67.87200344 155.45180227 67.84912109 159.17822266 C67.82716545 162.77682652 67.81538426 166.37534091 67.81024551 169.97400665 C67.8048282 171.99439956 67.78925295 174.01475719 67.77340698 176.03509521 C67.44206499 191.55619422 67.44206499 191.55619422 74 205 C77.44195804 207.61114059 80.79747281 207.40669618 85 207 C87.61940235 206.03538188 90.13967637 204.9598679 92.66796875 203.77734375 C95.42987899 202.856707 96.37006149 202.76511413 99 204 C100.29272461 206.68945312 100.29272461 206.68945312 101.40234375 210.28125 C101.70696785 211.24322044 101.70696785 211.24322044 102.01774597 212.22462463 C102.67411008 214.31169238 103.30623047 216.40521909 103.9375 218.5 C104.37945432 219.92673632 104.82265184 221.35308814 105.26708984 222.77905273 C106.13698732 225.58129996 106.99655749 228.3863677 107.84619141 231.19482422 C108.80143226 234.34513822 109.77481266 237.48842798 110.76171875 240.62890625 C114.27361693 252.00778933 114.27361693 252.00778933 114 258 C104.51136365 262.87429949 95.37289415 265.76248412 85 268 C83.83368042 268.26369385 83.83368042 268.26369385 82.64379883 268.53271484 C63.45221347 271.92478192 41.60116907 269.54718149 25 259 C10.71164952 248.71072138 3.45122918 232.56223763 0.43655396 215.57434082 C-0.53094448 207.65282476 -0.36562264 199.64576318 -0.4140625 191.67578125 C-0.43280125 189.71851307 -0.45237662 187.76125273 -0.4727478 185.80400085 C-0.52378926 180.68645889 -0.5635637 175.56889082 -0.60089111 170.45123291 C-0.64110746 165.21547129 -0.69211884 159.97981566 -0.7421875 154.74414062 C-0.83861486 144.49616851 -0.9231245 134.24813615 -1 124 C-1.74685059 123.97494385 -2.49370117 123.9498877 -3.26318359 123.92407227 C-6.63397267 123.80831787 -10.00446783 123.68549872 -13.375 123.5625 C-14.550625 123.52318359 -15.72625 123.48386719 -16.9375 123.44335938 C-18.05898438 123.40146484 -19.18046875 123.35957031 -20.3359375 123.31640625 C-21.37282715 123.27974854 -22.4097168 123.24309082 -23.47802734 123.20532227 C-26 123 -26 123 -28 122 C-28.02529271 114.91586059 -28.04284261 107.83173277 -28.05493164 100.74755859 C-28.05996974 98.33609583 -28.06680034 95.92463614 -28.07543945 93.51318359 C-28.08752787 90.05305221 -28.09323344 86.5929611 -28.09765625 83.1328125 C-28.10281754 82.04944611 -28.10797882 80.96607971 -28.11329651 79.84988403 C-28.11337204 78.8489975 -28.11344757 77.84811096 -28.11352539 76.81689453 C-28.115746 75.93309113 -28.11796661 75.04928772 -28.12025452 74.13870239 C-28 72 -28 72 -27 70 C-18.42 70 -9.84 70 -1 70 C-0.67 46.9 -0.34 23.8 0 0 Z " fill="#478AC9" transform="translate(842,349)"/>
<path d="M0 0 C1.27479721 -0.00315216 2.54959442 -0.00630432 3.86302185 -0.009552 C5.2655338 -0.00776203 6.66804543 -0.00571103 8.07055664 -0.00341797 C9.49923214 -0.00409112 10.92790753 -0.00506124 12.35658264 -0.00631714 C15.35524584 -0.00779407 18.35387931 -0.00564004 21.35253906 -0.00097656 C25.20074047 0.00471559 29.04887205 0.00144497 32.89707088 -0.00454903 C35.84896879 -0.00815916 38.80085009 -0.00701387 41.75274849 -0.00442123 C43.17175874 -0.00375295 44.59077048 -0.00457695 46.00977898 -0.00690079 C47.99219612 -0.0094341 49.97461852 -0.00488977 51.95703125 0 C53.08652695 0.00079559 54.21602264 0.00159119 55.37974548 0.00241089 C58.04321289 0.12939453 58.04321289 0.12939453 60.04321289 1.12939453 C60.04321289 64.81939453 60.04321289 128.50939453 60.04321289 194.12939453 C38.26321289 194.12939453 16.48321289 194.12939453 -5.95678711 194.12939453 C-7.66634436 192.41983728 -7.0816576 190.26006088 -7.09053051 187.97973728 C-7.08829979 187.23627017 -7.08606907 186.49280306 -7.08377075 185.72680664 C-7.08611074 184.55052027 -7.08611074 184.55052027 -7.088498 183.35047054 C-7.09251114 180.7025411 -7.08931715 178.05466822 -7.08618164 175.40673828 C-7.08753554 173.51661139 -7.08931541 171.62648476 -7.0914917 169.73635864 C-7.09606735 164.58774804 -7.09427593 159.43915738 -7.09111261 154.29054642 C-7.08858969 148.91513259 -7.09092636 143.53972053 -7.09249878 138.16430664 C-7.09432067 129.13541353 -7.09191364 120.10652859 -7.0871582 111.07763672 C-7.08171555 100.62290384 -7.08347819 90.16819046 -7.08898461 79.71345806 C-7.09351517 70.7546837 -7.09416657 61.79591522 -7.09154594 52.83714008 C-7.08998285 47.47881564 -7.08979026 42.12050038 -7.09308243 36.76217651 C-7.09596032 31.72587033 -7.09398696 26.68958942 -7.08818817 21.65328598 C-7.08686013 19.7992647 -7.08725543 17.94524131 -7.08945084 16.09122086 C-7.09216063 13.57144551 -7.08878333 11.05175245 -7.08377075 8.53198242 C-7.08711683 7.41678175 -7.08711683 7.41678175 -7.09053051 6.27905178 C-7.06531501 -0.20128599 -6.31824276 0.00445358 0 0 Z " fill="#478AC9" transform="translate(984.956787109375,418.87060546875)"/>
<path d="M0 0 C1.31493769 0.00138269 1.31493769 0.00138269 2.65643978 0.00279331 C4.16042828 0.00073132 4.16042828 0.00073132 5.69480038 -0.00137234 C7.35851429 0.00402058 7.35851429 0.00402058 9.05583858 0.00952244 C10.21665951 0.00937641 11.37748043 0.00923038 12.57347775 0.00907993 C16.43146759 0.00977966 20.28940985 0.01757485 24.14739132 0.02539158 C26.81397235 0.02725555 29.48055071 0.02872871 32.14713192 0.0296793 C38.46177386 0.03279235 44.77639858 0.04100539 51.09103292 0.05102879 C58.2783414 0.06219073 65.46565068 0.06770058 72.65296566 0.07272422 C87.44148096 0.08318802 102.22998272 0.10078696 117.01848507 0.12304783 C118.42033431 3.48252808 119.26824118 6.0271709 119.26140499 9.67871189 C119.26601994 10.98597233 119.26601994 10.98597233 119.27072811 12.31964207 C119.25994984 13.71506229 119.25994984 13.71506229 119.24895382 15.13867283 C119.2484956 16.10907505 119.24803738 17.07947727 119.24756527 18.07928562 C119.24454894 20.13018105 119.2366812 22.1810743 119.22429562 24.23193455 C119.20613069 27.34806676 119.20378553 30.46389961 119.20403194 33.58007908 C119.19911244 35.57877953 119.19328225 37.57747799 119.18645382 39.57617283 C119.185341 40.49835606 119.18422817 41.42053928 119.18308163 42.37066746 C119.14228886 48.02370171 118.89862402 53.53239964 118.01848507 59.12304783 C115.62694155 60.31881959 114.15377788 60.25138469 111.48374081 60.2567606 C110.52900372 60.26102558 109.57426662 60.26529057 108.59059811 60.26968479 C107.53965969 60.26923161 106.48872128 60.26877842 105.40593624 60.2683115 C104.30176861 60.27167011 103.19760098 60.27502872 102.05997372 60.27848911 C98.39378911 60.28802207 94.72765007 60.28994349 91.06145382 60.29101658 C88.52038205 60.29422785 85.97931047 60.29759183 83.4382391 60.30110264 C78.10422417 60.30710001 72.77022633 60.30898467 67.43620968 60.30835056 C61.27416293 60.30775025 55.11220385 60.31829194 48.95017928 60.33409423 C43.02136471 60.34875604 37.09257688 60.35233832 31.16374302 60.35174084 C28.64193839 60.35292245 26.12013313 60.35735435 23.59834003 60.3650732 C20.07189165 60.37485504 16.54566941 60.37200189 13.01921749 60.36596775 C11.45191891 60.37439701 11.45191891 60.37439701 9.85295773 60.38299656 C8.88976116 60.37880207 7.9265646 60.37460758 6.93418026 60.37028599 C5.68397736 60.37110314 5.68397736 60.37110314 4.40851784 60.3719368 C1.66926299 60.08668116 -0.47914669 59.24660468 -2.98151493 58.12304783 C-3.00464376 50.70844841 -3.02243278 43.29385672 -3.0333271 35.87922859 C-3.03855475 32.43664435 -3.04565024 28.99408471 -3.05695438 25.55151463 C-3.06985728 21.5974974 -3.07474411 17.64349027 -3.07917118 13.68945408 C-3.08433247 12.44780994 -3.08949375 11.20616581 -3.09481144 9.9268961 C-3.09488697 8.78578876 -3.0949625 7.64468143 -3.09504032 6.46899509 C-3.09726093 5.45861683 -3.09948154 4.44823856 -3.10176945 3.40724277 C-2.94998963 0.52423506 -2.87769922 0.17869895 0 0 Z " fill="#488BC9" transform="translate(1092.981514930725,473.8769521713257)"/>
<path d="M0 0 C8.91333018 6.60147692 15.60681585 15.16687131 17.35546875 26.3046875 C18.43199483 39.32913681 16.65792572 49.42021507 8.51953125 59.79296875 C0.76787532 68.78992681 -7.13991843 72.88083259 -19.01953125 74.2421875 C-29.2241807 74.73967933 -38.49812827 72.53649808 -46.64453125 66.3046875 C-48.16046875 65.2528125 -48.16046875 65.2528125 -49.70703125 64.1796875 C-57.39780045 57.47653074 -61.96602108 47.41470951 -62.921875 37.3984375 C-63.34672978 24.21094524 -59.24434351 14.34216116 -50.51953125 4.6171875 C-37.2513608 -8.11669421 -15.26516444 -9.78593998 0 0 Z " fill="#478AC9" transform="translate(1034.64453125,307.6953125)"/>
<path d="M0 0 C0 0.66 0 1.32 0 2 C-0.71542969 2.268125 -1.43085938 2.53625 -2.16796875 2.8125 C-10.42555933 6.05998711 -17.58083376 10.15345374 -25 15 C-26.051875 15.66902344 -27.10375 16.33804687 -28.1875 17.02734375 C-30.64001214 18.74750851 -32.27258247 20.19206996 -34.125 22.5 C-36.70818839 25.59868053 -39.43833642 28.40929751 -42.36621094 31.18481445 C-53.81003086 42.12898965 -60.05335037 55.16005111 -65 70 C-65.66 69.67 -66.32 69.34 -67 69 C-62.50461347 53.56872123 -56.24273516 41.7076603 -45 30 C-44.03343211 28.81919284 -43.07426349 27.63226267 -42.125 26.4375 C-33.72043965 16.62834189 -13.79452738 0 0 0 Z " fill="#5D99D1" transform="translate(419,420)"/>
<path d="M0 0 C3.49369888 2.64453596 6.27591573 5.32361276 9 8.75 C9.77859375 9.72066406 10.5571875 10.69132813 11.359375 11.69140625 C11.78154297 12.22137207 12.20371094 12.75133789 12.63867188 13.29736328 C15.15482902 16.44436471 17.70602187 19.56298371 20.25 22.6875 C23.62659821 26.8427032 27.0005132 31.00007034 30.37109375 35.16015625 C35.33568618 41.28407483 40.31076913 47.39558445 45.375 53.4375 C57 67.36090686 57 67.36090686 57 70 C56.34 70 55.68 70 55 70 C53.51171875 68.375 53.51171875 68.375 51.6875 66 C50.97851562 65.09121094 50.26953125 64.18242188 49.5390625 63.24609375 C49.13977539 62.73288574 48.74048828 62.21967773 48.32910156 61.69091797 C45.78074967 58.44883765 43.16713744 55.2593918 40.5625 52.0625 C39.99748779 51.36769531 39.43247559 50.67289063 38.8503418 49.95703125 C35.7399721 46.13275465 32.62339619 42.31364949 29.5 38.5 C24.21513773 32.04609142 18.94889507 25.57728141 13.69921875 19.09472656 C11.97029843 16.96338513 10.2351662 14.83719541 8.5 12.7109375 C7.39554242 11.34919423 6.29136512 9.98722358 5.1875 8.625 C4.40475708 7.67028809 4.40475708 7.67028809 3.60620117 6.69628906 C0 2.22756244 0 2.22756244 0 0 Z " fill="#5DA2D3" transform="translate(1891,530)"/>
<path d="M0 0 C0.66 0 1.32 0 2 0 C2.268125 1.19753906 2.53625 2.39507812 2.8125 3.62890625 C8.65687856 28.41060595 22.31047984 47.03202615 43 62 C38.2329678 62 35.58889183 58.93581118 32 56 C31.22140625 55.36964844 30.4428125 54.73929687 29.640625 54.08984375 C14.08082124 40.83427844 3.97367312 24.0904964 0 4 C0 2.68 0 1.36 0 0 Z " fill="#619AD1" transform="translate(125,400)"/>
<path d="M0 0 C1.485 0.99 1.485 0.99 3 2 C2.37424712 6.54322661 0.55726353 10.28825213 -1.5 14.328125 C-2.02784843 15.38203178 -2.02784843 15.38203178 -2.56636047 16.45722961 C-3.70443007 18.72481612 -4.85150763 20.98767669 -6 23.25 C-6.78164993 24.7967149 -7.56314401 26.34350857 -8.34448242 27.89038086 C-9.87168331 30.91007762 -11.40355476 33.92734085 -12.93896484 36.94287109 C-14.63885448 40.28308497 -16.31717917 43.63355724 -17.98828125 46.98828125 C-18.76173651 48.51367274 -19.53631599 50.03849521 -20.3125 51.5625 C-20.8065332 52.56748535 -20.8065332 52.56748535 -21.31054688 53.59277344 C-22.61151872 56.0974866 -23.47560603 57.73629902 -26.04296875 59.02734375 C-28 59 -28 59 -31 57 C-31 56.34 -31 55.68 -31 55 C-29.02 55.33 -27.04 55.66 -25 56 C-24.73574219 55.30777344 -24.47148437 54.61554688 -24.19921875 53.90234375 C-22.87727962 50.7029927 -21.37326998 47.65303128 -19.8125 44.5625 C-19.48443359 43.90725342 -19.15636719 43.25200684 -18.81835938 42.5769043 C-16.62074471 38.19181334 -14.39778627 33.82019357 -12.16081238 29.45509338 C-10.7809916 26.7577252 -9.40959142 24.05611881 -8.03915405 21.35397339 C-7.34820124 19.99655986 -6.65357437 18.64101006 -5.95523071 17.28738403 C-4.96083453 15.35894324 -3.97926526 13.4244396 -3 11.48828125 C-2.13375 9.79505737 -2.13375 9.79505737 -1.25 8.06762695 C-0.02991335 5.07341039 0.28520385 3.18589045 0 0 Z " fill="#327EC7" transform="translate(319,325)"/>
<path d="M0 0 C0.73168945 1.57324219 0.73168945 1.57324219 1 4 C-0.13662874 6.42294785 -1.30659124 8.56545472 -2.70703125 10.828125 C-3.10368988 11.49044128 -3.50034851 12.15275757 -3.9090271 12.83514404 C-5.19828874 14.98086955 -6.50496242 17.11537152 -7.8125 19.25 C-8.69343306 20.70774827 -9.57339842 22.16608178 -10.45239258 23.625 C-16.20109695 33.14424356 -22.00665658 42.63251209 -28 52 C-28.33 51.34 -28.66 50.68 -29 50 C-25.86742877 41.53965974 -20.34464479 33.78721565 -15.625 26.125 C-14.15701462 23.73289518 -12.69134223 21.33938139 -11.2265625 18.9453125 C-10.87217102 18.36678528 -10.51777954 17.78825806 -10.15264893 17.19219971 C-6.68213968 11.5113529 -3.3268891 5.76616683 0 0 Z " fill="#72ABD7" transform="translate(129,523)"/>
<path d="M0 0 C5.6093873 2.80469365 9.78977749 7.02162188 12.15234375 12.8359375 C14.25784905 20.69519693 13.98114776 28.86073135 10.20703125 36.12890625 C7.56631363 40.22244586 4.52380284 43.15696921 0 45 C0 44.34 0 43.68 0 43 C0.721875 42.505 1.44375 42.01 2.1875 41.5 C7.04123 37.18557334 9.55796927 32.18185913 10.453125 25.73828125 C10.70575231 17.96999149 9.72721098 12.06356904 4.3984375 6.25390625 C2.94760969 4.82026834 1.47540044 3.40833679 0 2 C0 1.34 0 0.68 0 0 Z " fill="#61A7D6" transform="translate(241,501)"/>
<path d="M0 0 C17.54106183 2.81909922 37.30358242 13.57876508 49 27 C49 27.99 49 28.98 49 30 C48.46375 29.46632813 47.9275 28.93265625 47.375 28.3828125 C34.01543065 15.68243243 17.33457785 7.01403721 0 1 C0 0.67 0 0.34 0 0 Z " fill="#6099D0" transform="translate(1627,419)"/>
<path d="M0 0 C0.99 0.33 1.98 0.66 3 1 C2.29875 1.64324219 1.5975 2.28648437 0.875 2.94921875 C-9.75185399 13.07071963 -16.20668984 24.59199807 -22 38 C-23.83388591 33.16312592 -21.55671906 29.63526512 -19.578125 25.15625 C-14.7678873 15.53577461 -7.56219805 7.56219805 0 0 Z " fill="#87B7DB" transform="translate(153,326)"/>
<path d="M0 0 C23.43 0 46.86 0 71 0 C71 0.33 71 0.66 71 1 C70.14222458 1.00364563 69.28444916 1.00729126 68.40068054 1.01104736 C60.32221938 1.04889295 52.24416334 1.10570609 44.16598797 1.18390274 C40.01274203 1.22343498 35.85970992 1.25559496 31.70629883 1.27099609 C27.69897966 1.28612529 23.69224814 1.32050296 19.6851902 1.36830902 C18.155415 1.38316169 16.62555592 1.39104324 15.09570885 1.39188385 C12.95468661 1.39424381 10.81530138 1.42123973 8.67456055 1.45410156 C6.84588692 1.46742523 6.84588692 1.46742523 4.98027039 1.48101807 C1.88684979 1.71301684 1.88684979 1.71301684 0.08283997 4.03411865 C-0.27449722 4.6828595 -0.63183441 5.33160034 -1 6 C-1.33 5.34 -1.66 4.68 -2 4 C-1.34 2.68 -0.68 1.36 0 0 Z " fill="#3C83C5" transform="translate(1424,305)"/>
<path d="M0 0 C0.99 0.66 1.98 1.32 3 2 C-0.14479431 13.16157564 -12.04952198 25.54555 -21.828125 31.8125 C-22.90320313 32.4003125 -22.90320313 32.4003125 -24 33 C-24 32.01 -24 31.02 -24 30 C-21.9453125 28.16015625 -21.9453125 28.16015625 -19.125 26.0625 C-11.89548714 20.36680358 -6.11567956 13.67351934 -1 6 C-0.9603287 4.33380554 -0.95615553 2.66608987 -1 1 C-0.67 0.67 -0.34 0.34 0 0 Z " fill="#3181C5" transform="translate(551,565)"/>
<path d="M0 0 C5.62830235 3.8272456 10.4359488 8.21602879 15.25 13 C15.85215332 13.59312988 16.45430664 14.18625977 17.07470703 14.79736328 C20.54565909 18.29151301 23.61437224 21.6714383 26 26 C25.67 26.99 25.34 27.98 25 29 C24.54109375 28.40832031 24.0821875 27.81664062 23.609375 27.20703125 C22.33988418 25.57216177 21.06762391 23.93943997 19.79296875 22.30859375 C18.52833095 20.68026927 17.2868658 19.03381818 16.0625 17.375 C13.02650417 13.8790048 9.52932121 10.98584503 6 8 C4.66625935 6.8546408 3.33289472 5.70884353 2 4.5625 C1.01 3.716875 0.02 2.87125 -1 2 C-0.67 1.34 -0.34 0.68 0 0 Z " fill="#347EC4" transform="translate(294,454)"/>
<path d="M0 0 C0.66 0 1.32 0 2 0 C2.45439453 1.88332031 2.45439453 1.88332031 2.91796875 3.8046875 C5.87757013 15.93336784 5.87757013 15.93336784 11.1796875 27.1875 C12 29 12 29 11 32 C4.33446734 22.66825427 0.60232773 11.44422695 0 0 Z " fill="#66A5D4" transform="translate(125,400)"/>
<path d="M0 0 C2.31851313 2.31851313 2.94679881 4.13488782 4.125 7.1875 C7.19177665 14.76695101 11.06254089 21.84808916 15 29 C10.60001786 27.52349593 9.03165231 24.2372238 6.9375 20.375 C6.58751953 19.74343994 6.23753906 19.11187988 5.87695312 18.46118164 C-0.61433017 6.55285519 -0.61433017 6.55285519 0 0 Z " fill="#68A0D3" transform="translate(353,544)"/>
<path d="M0 0 C8.14794378 7.63869729 14.53102542 16.95031748 21 26 C20.67 26.66 20.34 27.32 20 28 C14.50019992 22.00178053 9.7134195 15.62639729 5 9 C4.46632813 8.278125 3.93265625 7.55625 3.3828125 6.8125 C0 2.22563559 0 2.22563559 0 0 Z " fill="#609ED3" transform="translate(1806,425)"/>
<path d="M0 0 C0 0.66 0 1.32 0 2 C-2.30802444 3.50262008 -4.60947257 4.89054783 -7 6.25 C-12.62690157 9.52644887 -17.89547127 12.93721183 -23 17 C-23 14 -23 14 -21.453125 12.421875 C-5.08411215 0 -5.08411215 0 0 0 Z " fill="#78A8D7" transform="translate(181,308)"/>
<path d="M0 0 C4.8637397 0.96637623 7.77154024 3.29247847 11 7 C17 16.95185996 17 16.95185996 17 22 C16.34 22 15.68 22 15 22 C14.81566406 21.39414062 14.63132812 20.78828125 14.44140625 20.1640625 C11.50483447 11.68063291 6.25017342 6.25017342 0 0 Z " fill="#60A8D6" transform="translate(475,463)"/>
<path d="M0 0 C1.32 0.66 2.64 1.32 4 2 C3.31550781 2.31582031 2.63101562 2.63164062 1.92578125 2.95703125 C-2.23420662 5.86180248 -4.82594336 9.6288461 -7.8125 13.6875 C-8.40998047 14.48478516 -9.00746094 15.28207031 -9.62304688 16.10351562 C-11.08995919 18.06331047 -12.54852741 20.02875835 -14 22 C-14.33 21.01 -14.66 20.02 -15 19 C-13.84423828 17.02294922 -13.84423828 17.02294922 -12.0703125 14.8046875 C-11.43996094 14.00675781 -10.80960938 13.20882813 -10.16015625 12.38671875 C-9.48855469 11.55785156 -8.81695313 10.72898437 -8.125 9.875 C-7.46113281 9.03839844 -6.79726562 8.20179688 -6.11328125 7.33984375 C-1.33358135 1.33358135 -1.33358135 1.33358135 0 0 Z " fill="#3A86C6" transform="translate(1868,420)"/>
<path d="M0 0 C0.66 0 1.32 0 2 0 C0.27367917 5.51094725 -2.08374382 10.57586203 -4.5625 15.78125 C-5.91719905 18.81459787 -7.00763315 21.83205966 -8 25 C-8.66 24.67 -9.32 24.34 -10 24 C-7.37969677 15.53697807 -4.79732957 7.53282814 0 0 Z " fill="#629FD0" transform="translate(362,465)"/>
<path d="M0 0 C0.33 0 0.66 0 1 0 C1.35191406 1.53333984 1.35191406 1.53333984 1.7109375 3.09765625 C2.88180631 7.19569708 4.98732891 10.08388961 7.625 13.4375 C8.04523438 13.97826172 8.46546875 14.51902344 8.8984375 15.07617188 C9.92280733 16.39155586 10.96007247 17.69688093 12 19 C11.67 19.66 11.34 20.32 11 21 C9.58155991 19.43910974 8.16532975 17.8762111 6.75 16.3125 C5.96109375 15.44238281 5.1721875 14.57226562 4.359375 13.67578125 C-0.14023408 8.57274777 -0.14023408 8.57274777 -2 6 C-1.70731707 1.70731707 -1.70731707 1.70731707 0 0 Z " fill="#5AA0D6" transform="translate(1878,508)"/>
<path d="M0 0 C5.82253398 2.91126699 9.78070079 7.29633653 12.4375 13.1875 C13.00529842 16.02649209 12.79242902 17.29880035 12 20 C11.63648438 19.20335937 11.27296875 18.40671875 10.8984375 17.5859375 C7.90402847 11.27464462 5.16822058 6.6760091 0 2 C0 1.34 0 0.68 0 0 Z " fill="#70A4D6" transform="translate(241,501)"/>
<path d="M0 0 C0 3 0 3 -1.8984375 5.04296875 C-2.71570313 5.75066406 -3.53296875 6.45835937 -4.375 7.1875 C-5.59316406 8.26064453 -5.59316406 8.26064453 -6.8359375 9.35546875 C-9 11 -9 11 -11 11 C-11 8.03 -11 5.06 -11 2 C-10.01 3.32 -9.02 4.64 -8 6 C-5.36 4.02 -2.72 2.04 0 0 Z " fill="#639CD2" transform="translate(664,430)"/>
<path d="M0 0 C4.12306307 1.58504547 6.63930446 4.58934576 9.5 7.8125 C10.20962891 8.59463867 10.20962891 8.59463867 10.93359375 9.39257812 C13.74055175 12.50666865 16.41280978 15.69889172 19 19 C16.1376052 17.69947546 14.0609702 16.31677165 11.8359375 14.1015625 C10.98902344 13.25851562 10.98902344 13.25851562 10.125 12.3984375 C9.5475 11.81320312 8.97 11.22796875 8.375 10.625 C7.78976562 10.0475 7.20453125 9.47 6.6015625 8.875 C6.03953125 8.31039062 5.4775 7.74578125 4.8984375 7.1640625 C4.38974121 6.65311035 3.88104492 6.1421582 3.35693359 5.61572266 C1.87653951 3.8529936 0.94943805 2.08966955 0 0 Z " fill="#6099D0" transform="translate(367,574)"/>
<path d="M0 0 C4.8403477 4.53782597 9.14689594 9.59800548 13 15 C13 15.66 13 16.32 13 17 C8.95093715 15.65031238 7.29364742 12.9096003 4.8125 9.625 C4.34908203 9.03460938 3.88566406 8.44421875 3.40820312 7.8359375 C0 3.37867038 0 3.37867038 0 0 Z " fill="#3386CA" transform="translate(1772,481)"/>
<path d="M0 0 C6.17049821 2.64449923 11.17701651 9.00116007 14 15 C13.67 15.66 13.34 16.32 13 17 C3.40546697 5.47835991 3.40546697 5.47835991 0 0 Z " fill="#609ED0" transform="translate(1679,451)"/>
<path d="M0 0 C3.63808553 3.4240805 6.56181575 7.03274279 9.5078125 11.0625 C11.47900572 13.62195507 13.64993364 15.78817284 16 18 C11.64536094 16.61268136 9.33883034 14.64113417 6.3125 11.25 C5.54550781 10.40953125 4.77851562 9.5690625 3.98828125 8.703125 C1.89537279 5.85775633 0.92651612 3.38896807 0 0 Z " fill="#5F95D0" transform="translate(852,589)"/>
<path d="M0 0 C3.86779381 2.88538792 6.80698215 5.98188807 9.8125 9.75 C10.60269531 10.73484375 11.39289063 11.7196875 12.20703125 12.734375 C12.79871094 13.48203125 13.39039063 14.2296875 14 15 C13.01 15.33 12.02 15.66 11 16 C9.16074213 13.71287089 7.32848506 11.42071465 5.5 9.125 C4.97535156 8.47402344 4.45070313 7.82304688 3.91015625 7.15234375 C3.16572266 6.21455078 3.16572266 6.21455078 2.40625 5.2578125 C1.94541016 4.6817627 1.48457031 4.10571289 1.00976562 3.51220703 C0 2 0 2 0 0 Z " fill="#6799D3" transform="translate(1891,530)"/>
<path d="M0 0 C4.54109672 4.26587874 8.24735246 9.03612328 12 14 C11.34 14.66 10.68 15.32 10 16 C8.3243583 13.90245565 6.65949806 11.79775361 5 9.6875 C4.52304688 9.09259766 4.04609375 8.49769531 3.5546875 7.88476562 C0 3.33984375 0 3.33984375 0 0 Z " fill="#3986C6" transform="translate(1851,577)"/>
<path d="M0 0 C0.66 0.33 1.32 0.66 2 1 C-1.96 5.62 -5.92 10.24 -10 15 C-10 11.04852353 -8.61580052 9.94684795 -6.125 6.9375 C-5.40570312 6.05964844 -4.68640625 5.18179688 -3.9453125 4.27734375 C-2 2 -2 2 0 0 Z " fill="#3B83C7" transform="translate(1728,593)"/>
<path d="M0 0 C3.3 0 6.6 0 10 0 C10 0.33 10 0.66 10 1 C7.69 1 5.38 1 3 1 C4.32 3.64 5.64 6.28 7 9 C3.24440513 7.12220256 2.07034892 6.41607572 0 3 C0 2.01 0 1.02 0 0 Z " fill="#377DC2" transform="translate(1726,421)"/>
<path d="M0 0 C0 3.7280222 -1.37314595 4.73975461 -3.75390625 7.4375 C-5.3663934 9.45942746 -6.20812082 11.55237345 -7 14 C-7.66 14 -8.32 14 -9 14 C-7.74942129 8.31555133 -6.02339363 5.22456331 -2 1 C-1.34 0.67 -0.68 0.34 0 0 Z " fill="#357EC3" transform="translate(204,369)"/>
<path d="M0 0 C0.99 0.33 1.98 0.66 3 1 C-0.3 4.3 -3.6 7.6 -7 11 C-7.33 10.01 -7.66 9.02 -8 8 C-5.36 5.36 -2.72 2.72 0 0 Z " fill="#74A1DB" transform="translate(153,326)"/>
<path d="M0 0 C1.27609323 0.90933009 2.54565553 1.82782853 3.8125 2.75 C4.87404297 3.51570313 4.87404297 3.51570313 5.95703125 4.296875 C8.02977691 6.02482358 9.47375854 7.78526476 11 10 C7.03869629 10 6.17085599 8.65122875 3.3125 6 C2.50425781 5.2575 1.69601562 4.515 0.86328125 3.75 C0.24839844 3.1725 -0.36648438 2.595 -1 2 C-0.67 1.34 -0.34 0.68 0 0 Z " fill="#3E83C6" transform="translate(294,454)"/>
<path d="M0 0 C0.66 0.33 1.32 0.66 2 1 C-2.95 7.435 -2.95 7.435 -8 14 C-8.66 13.67 -9.32 13.34 -10 13 C-5.05 6.565 -5.05 6.565 0 0 Z " fill="#5296CF" transform="translate(1805,596)"/>
<path d="M0 0 C0.99 0 1.98 0 3 0 C3 0.66 3 1.32 3 2 C6.3 2 9.6 2 13 2 C8.74100702 4.12949649 6.65688422 4.25401187 2 4 C1.01 3.67 0.02 3.34 -1 3 C-0.67 2.01 -0.34 1.02 0 0 Z " fill="#337BC6" transform="translate(1714,609)"/>
<path d="M0 0 C0.66 0 1.32 0 2 0 C3.44074715 1.782129 4.80510649 3.62660276 6.125 5.5 C7.21167969 7.03140625 7.21167969 7.03140625 8.3203125 8.59375 C8.87460938 9.3878125 9.42890625 10.181875 10 11 C9.01 11 8.02 11 7 11 C5.17578125 9.1015625 5.17578125 9.1015625 3.3125 6.625 C2.68988281 5.81289063 2.06726562 5.00078125 1.42578125 4.1640625 C0 2 0 2 0 0 Z " fill="#3988C7" transform="translate(1865,596)"/>
<path d="M0 0 C3.9252025 3.70090521 6.94580156 7.54959656 10 12 C9.01 12 8.02 12 7 12 C5.17578125 10.13671875 5.17578125 10.13671875 3.3125 7.6875 C2.68988281 6.88699219 2.06726562 6.08648437 1.42578125 5.26171875 C0 3 0 3 0 0 Z " fill="#3C82C5" transform="translate(1749,451)"/>
<path d="M0 0 C4.50884026 2.31883213 6.93906776 5.06451569 10 9 C7 9 7 9 5.17578125 7.5390625 C4.56089844 6.90742188 3.94601562 6.27578125 3.3125 5.625 C2.68988281 4.99851562 2.06726562 4.37203125 1.42578125 3.7265625 C0 2 0 2 0 0 Z " fill="#3981C4" transform="translate(1618,480)"/>
<path d="M0 0 C0.66 0.99 1.32 1.98 2 3 C0.68 3.99 -0.64 4.98 -2 6 C-2 2 -2 2 0 0 Z " fill="#419FD2" transform="translate(380,443)"/>
<path d="M0 0 C3.44620861 1.1487362 4.09169196 2.07581642 6.1875 4.9375 C6.71730469 5.64777344 7.24710938 6.35804688 7.79296875 7.08984375 C9 9 9 9 9 11 C5.55379139 9.8512638 4.90830804 8.92418358 2.8125 6.0625 C2.28269531 5.35222656 1.75289062 4.64195312 1.20703125 3.91015625 C0 2 0 2 0 0 Z " fill="#3D83C4" transform="translate(1785,499)"/>
<path d="M0 0 C8.08294393 7.86448598 8.08294393 7.86448598 9 13 C8.34 13 7.68 13 7 13 C5.2734375 10.6640625 5.2734375 10.6640625 3.375 7.625 C2.74335937 6.62726563 2.11171875 5.62953125 1.4609375 4.6015625 C0 2 0 2 0 0 Z " fill="#5E99CC" transform="translate(715,476)"/>
<path d="M0 0 C0.99 0 1.98 0 3 0 C4.82421875 1.96875 4.82421875 1.96875 6.6875 4.5 C7.31011719 5.3353125 7.93273438 6.170625 8.57421875 7.03125 C9.04472656 7.6809375 9.51523438 8.330625 10 9 C7 9 7 9 5.17578125 7.28515625 C4.56089844 6.55167969 3.94601562 5.81820312 3.3125 5.0625 C2.68988281 4.33160156 2.06726562 3.60070312 1.42578125 2.84765625 C0 1 0 1 0 0 Z " fill="#3687C7" transform="translate(1493,574)"/>
<path d="M0 0 C0.66 0.33 1.32 0.66 2 1 C-0.64 4.3 -3.28 7.6 -6 11 C-6.33 10.01 -6.66 9.02 -7 8 C-5.56640625 5.95703125 -5.56640625 5.95703125 -3.5625 3.8125 C-2.90378906 3.09707031 -2.24507812 2.38164063 -1.56640625 1.64453125 C-1.04949219 1.10183594 -0.53257813 0.55914063 0 0 Z " fill="#3C84C4" transform="translate(1749,567)"/>
<path d="M0 0 C-1.66751148 3.94139078 -4.22710649 6.7892812 -7 10 C-7.33 9.01 -7.66 8.02 -8 7 C-6.85546875 5.17578125 -6.85546875 5.17578125 -5.1875 3.3125 C-4.37345703 2.37857422 -4.37345703 2.37857422 -3.54296875 1.42578125 C-2 0 -2 0 0 0 Z " fill="#367EC2" transform="translate(1794,514)"/>
<path d="M0 0 C3.98175544 2.10148204 6.35039045 4.36905358 9 8 C6 8 6 8 4.39453125 6.7578125 C3.87246094 6.21898437 3.35039062 5.68015625 2.8125 5.125 C2.28269531 4.59132813 1.75289062 4.05765625 1.20703125 3.5078125 C0 2 0 2 0 0 Z " fill="#6298D1" transform="translate(241,501)"/>
<path d="M0 0 C0 3.54404336 -0.60989485 4.10267905 -2.875 6.6875 C-3.40867187 7.31011719 -3.94234375 7.93273437 -4.4921875 8.57421875 C-6 10 -6 10 -8 10 C-6.23915938 6.0381086 -3.9706445 1.98532225 0 0 Z " fill="#337DC2" transform="translate(432,464)"/>
<path d="M0 0 C0 0.66 0 1.32 0 2 C-4.95 4.475 -4.95 4.475 -10 7 C-10.33 6.34 -10.66 5.68 -11 5 C-9.54462432 4.16151196 -8.08559627 3.32936066 -6.625 2.5 C-5.81289062 2.0359375 -5.00078125 1.571875 -4.1640625 1.09375 C-2 0 -2 0 0 0 Z " fill="#61A6D8" transform="translate(181,308)"/>
<path d="M0 0 C4.2742558 1.5830577 6.26531794 4.50568404 9 8 C8.67 8.66 8.34 9.32 8 10 C6.66370254 8.52351062 5.33103329 7.0437367 4 5.5625 C3.2575 4.73878906 2.515 3.91507813 1.75 3.06640625 C0 1 0 1 0 0 Z " fill="#5D97CE" transform="translate(1948,601)"/>
<path d="M0 0 C0.99 0.33 1.98 0.66 3 1 C1.02 2.98 -0.96 4.96 -3 7 C-3.99 6.67 -4.98 6.34 -6 6 C-4.02 4.02 -2.04 2.04 0 0 Z " fill="#3C82C5" transform="translate(307,583)"/>
<path d="M0 0 C4.37859255 0.50522222 6.81651224 3.17827222 10 6 C9.34 6.66 8.68 7.32 8 8 C6.66372225 6.85760183 5.33104612 5.71098945 4 4.5625 C3.2575 3.92441406 2.515 3.28632813 1.75 2.62890625 C1.1725 2.09136719 0.595 1.55382812 0 1 C0 0.67 0 0.34 0 0 Z " fill="#5C98CC" transform="translate(475,463)"/>
<path d="M0 0 C0.66 0.99 1.32 1.98 2 3 C1.3203125 5.26171875 1.3203125 5.26171875 0.125 7.6875 C-0.45894531 8.89986328 -0.45894531 8.89986328 -1.0546875 10.13671875 C-1.52261719 11.05904297 -1.52261719 11.05904297 -2 12 C-3.12377697 8.69564916 -2.89554742 6.9493138 -1.5625 3.75 C-1.27503906 3.04359375 -0.98757812 2.3371875 -0.69140625 1.609375 C-0.46324219 1.07828125 -0.23507813 0.5471875 0 0 Z " fill="#77B0D9" transform="translate(133,352)"/>
<path d="M0 0 C0.66 0.33 1.32 0.66 2 1 C-0.97 4.96 -0.97 4.96 -4 9 C-4.33 8.01 -4.66 7.02 -5 6 C-3.59554165 3.7363436 -1.8032087 1.9791315 0 0 Z " fill="#3789C7" transform="translate(1739,579)"/>
<path d="M0 0 C0.66 0 1.32 0 2 0 C0.44499019 3.81684226 -2.03595495 6.19195732 -5 9 C-4.42676569 5.13066838 -2.61046448 2.84777943 0 0 Z " fill="#3C82C4" transform="translate(1774,536)"/>
<path d="M0 0 C4.875 4.625 4.875 4.625 6 8 C2.57701423 6.85900474 1.85241234 5.99914379 0 3 C0 2.01 0 1.02 0 0 Z " fill="#357FC7" transform="translate(1840,563)"/>
<path d="M0 0 C0.66 0 1.32 0 2 0 C0.63055898 2.94956528 -0.87830409 5.52468811 -3 8 C-3.66 8 -4.32 8 -5 8 C-3.63055898 5.05043472 -2.12169591 2.47531189 0 0 Z " fill="#3791CB" transform="translate(1763,549)"/>
<path d="M0 0 C0.33 0 0.66 0 1 0 C1 2.64 1 5.28 1 8 C0.01 7.34 -0.98 6.68 -2 6 C-1.125 1.125 -1.125 1.125 0 0 Z " fill="#82ADDA" transform="translate(1878,508)"/>
<path d="M0 0 C0.66 0 1.32 0 2 0 C2.33 1.32 2.66 2.64 3 4 C3.66 4 4.32 4 5 4 C4.67 5.32 4.34 6.64 4 8 C3.34 7.67 2.68 7.34 2 7 C1.26924352 4.6859378 0.59861742 2.35171131 0 0 Z " fill="#5E97CF" transform="translate(1344,498)"/>
<path d="M0 0 C0.66 0.33 1.32 0.66 2 1 C-0.31 3.64 -2.62 6.28 -5 9 C-5.66 8.34 -6.32 7.68 -7 7 C-4.69 4.69 -2.38 2.38 0 0 Z " fill="#5A95CD" transform="translate(376,448)"/>
<path d="M0 0 C3.35620271 1.38877354 5.07298728 2.91677965 7 6 C7 6.66 7 7.32 7 8 C6.34 8 5.68 8 5 8 C3.7109375 6.50390625 3.7109375 6.50390625 2.375 4.5625 C1.92898438 3.92441406 1.48296875 3.28632812 1.0234375 2.62890625 C0 1 0 1 0 0 Z " fill="#6399D2" transform="translate(1941,592)"/>
<path d="M0 0 C0.66 0.66 1.32 1.32 2 2 C-0.31 3.65 -2.62 5.3 -5 7 C-5 6.01 -5 5.02 -5 4 C-2.5 1.8125 -2.5 1.8125 0 0 Z " fill="#3682C8" transform="translate(532,591)"/>
<path d="M0 0 C4.875 4.625 4.875 4.625 6 8 C2.57701423 6.85900474 1.85241234 5.99914379 0 3 C0 2.01 0 1.02 0 0 Z " fill="#357EC1" transform="translate(1779,490)"/>
</svg>
