<?xml version="1.0" encoding="UTF-8"?>
<svg version="1.1" xmlns="http://www.w3.org/2000/svg" width="2048" height="2048">
<path d="M0 0 C5.54334948 0.00329474 11.0866843 -0.00503909 16.63002895 -0.01181835 C26.32837309 -0.02208358 36.02669729 -0.02496822 45.72504633 -0.02290613 C59.47157197 -0.0199905 73.2180797 -0.02721322 86.96460083 -0.03718527 C114.90672736 -0.05742519 142.84884586 -0.06359547 170.79097889 -0.06476949 C173.79456771 -0.064899 176.79815653 -0.06503488 179.80174534 -0.06517631 C180.54718981 -0.06521032 181.29263428 -0.06524433 182.06066797 -0.06527937 C198.61391677 -0.0660979 215.16716405 -0.07048302 231.72041204 -0.075488 C238.54659613 -0.07754487 245.37278024 -0.079525 252.19896435 -0.0815205 C253.33048909 -0.08185227 253.33048909 -0.08185227 254.48487292 -0.08219074 C297.68956133 -0.0948318 340.89424875 -0.10308976 384.09893911 -0.10217363 C385.71435238 -0.10214207 387.32976565 -0.1021106 388.94517892 -0.10207921 C396.23783642 -0.10193246 403.53049392 -0.10175612 410.82315142 -0.10157144 C414.07479922 -0.1014892 417.32644703 -0.1014089 420.57809484 -0.10132882 C422.20560012 -0.10128803 423.8331054 -0.10124599 425.46061068 -0.1012027 C476.88993384 -0.09984312 528.31922943 -0.11446402 579.74854486 -0.14228326 C592.70167201 -0.14928615 605.65479917 -0.15622545 618.60792654 -0.16281206 C619.40566202 -0.1632178 620.20339749 -0.16362355 621.02530677 -0.1640416 C645.64340036 -0.17648693 670.26149169 -0.1840057 694.8795883 -0.18652803 C695.65340709 -0.18660793 696.42722589 -0.18668783 697.22449374 -0.18677015 C714.21833866 -0.18847735 731.21218344 -0.18899888 748.20602844 -0.1884294 C754.28804115 -0.18823646 760.37005387 -0.18813235 766.45206659 -0.18807194 C767.96493331 -0.18805611 769.47780002 -0.18803571 770.99066674 -0.1880107 C795.01752311 -0.1876592 819.04435576 -0.19900729 843.07120534 -0.21631833 C867.29773932 -0.2336844 891.52424061 -0.23794443 915.75077822 -0.22479568 C930.75646721 -0.21665388 945.76207022 -0.21893621 960.76775091 -0.23957875 C970.36924917 -0.25166368 979.97067311 -0.24889417 989.5721681 -0.23463776 C995.02294935 -0.22694581 1000.47353141 -0.22511332 1005.92429785 -0.24155246 C1108.39169609 -0.53016377 1208.69333617 25.98224097 1345.04419916 120.32402533 C1347.22156006 122.18999791 1349.41074181 124.03964024 1351.61573236 125.87285346 C1360.42200019 133.23877102 1368.63471613 141.10168039 1376.72559564 149.24223822 C1378.81280498 151.34023291 1380.91058896 153.42722898 1383.00953119 155.51347846 C1389.58043928 162.07827692 1395.92397649 168.64264174 1401.65357416 175.96562689 C1403.60061645 178.40550618 1405.67058508 180.67958242 1407.80445306 182.95683783 C1413.3261314 189.02493225 1418.10429907 195.61212888 1422.96119135 202.21220892 C1424.40530861 204.15289985 1425.87638756 206.06815797 1427.36304681 207.97636908 C1441.48647037 226.19695761 1453.45238592 246.05838003 1464.49195306 266.26933783 C1464.9758349 267.15202338 1465.45971674 268.03470892 1465.95826166 268.94414252 C1479.30809401 293.46352509 1490.37001028 318.89354965 1499.49195306 345.26933783 C1499.84596185 346.28882514 1500.19997064 347.30831244 1500.56470697 348.3586933 C1513.85220798 387.0738945 1521.86876315 427.53009752 1525.49195306 468.26933783 C1525.57503907 469.20007761 1525.65812508 470.1308174 1525.74372885 471.08976142 C1526.54246008 481.01632986 1526.63428276 490.87625134 1526.62338083 500.82905787 C1526.62503355 502.68407265 1526.62712122 504.53908708 1526.62960093 506.39410093 C1526.6351377 511.47957897 1526.63450068 516.56504007 1526.63282334 521.65052014 C1526.63208963 527.18808715 1526.63712131 532.72564948 1526.64139836 538.26321447 C1526.64896455 549.24116269 1526.65117072 560.21910605 1526.65172742 571.19705661 C1526.65259543 583.67360564 1526.6586148 596.15015059 1526.6650334 608.62669777 C1526.68131721 640.33603219 1526.68771999 672.04536586 1526.69248127 703.75470375 C1526.69486685 719.55380743 1526.69857083 735.35291069 1526.70251837 751.15201405 C1526.7151824 801.86670135 1526.72596538 852.58138863 1526.72935882 903.29607749 C1526.72952106 905.71894754 1526.72968662 908.1418176 1526.72985321 910.56468765 C1526.730187 915.4235496 1526.73051748 920.28241155 1526.73084777 925.1412735 C1526.73123466 930.8294579 1526.73162426 936.5176423 1526.73201883 942.2058267 C1526.73213125 943.833813 1526.73224267 945.4617993 1526.73235308 947.0897856 C1526.73590037 999.34367414 1526.75097019 1051.59754891 1526.77429083 1103.8514322 C1526.79104592 1141.40928322 1526.8065132 1178.96713164 1526.81102579 1216.52498644 C1526.81116602 1217.68503507 1526.81116602 1217.68503507 1526.81130908 1218.86851902 C1526.81332871 1235.85093938 1526.81448427 1252.83335971 1526.81483766 1269.81578019 C1526.81497382 1275.89351824 1526.81518281 1281.97125628 1526.81543092 1288.04899433 C1526.81549248 1289.56086861 1526.8155508 1291.07274289 1526.81560587 1292.58461718 C1526.81652351 1316.61856032 1526.82646557 1340.65248905 1526.84106335 1364.68642745 C1526.85572126 1388.91647805 1526.86069537 1413.14651101 1526.85264381 1437.37656526 C1526.84765896 1452.39193724 1526.85057183 1467.40726013 1526.8672089 1482.42262578 C1526.87700829 1492.02237063 1526.87573365 1501.62207442 1526.86577267 1511.22181896 C1526.86041616 1516.6774753 1526.85955421 1522.13301884 1526.87228139 1527.58866552 C1527.09544358 1629.85854716 1500.76951525 1726.2717492 1430.49195306 1836.26933783 C1429.71593744 1837.32765814 1428.93992181 1838.38597846 1428.14039056 1839.47636908 C1425.95046993 1842.4285059 1423.73102259 1845.35432279 1421.49195306 1848.26933783 C1421.06027826 1848.83249701 1420.62860346 1849.39565619 1420.1838476 1849.9758808 C1414.94678403 1856.7894548 1409.61400071 1863.40649522 1403.77369135 1869.71953314 C1401.65246099 1872.08997289 1399.69959032 1874.52531062 1397.74195306 1877.03105658 C1391.74856876 1884.38769271 1385.04172453 1891.01929464 1378.31812494 1897.70390814 C1376.12112466 1899.89018659 1373.93502629 1902.08695721 1371.74976556 1904.28496283 C1365.01723388 1911.02354904 1358.30509037 1917.57299889 1350.78980463 1923.44292182 C1348.29274097 1925.42767885 1345.95693814 1927.54007437 1343.61695306 1929.70683783 C1270.87557951 1995.72134455 1167.76867116 2036.09327108 1000.57927542 2048.65474049 C995.06066462 2048.64700325 989.54207737 2048.65695945 984.02347009 2048.66447049 C974.3888333 2048.67521857 964.7542471 2048.67503106 955.11960809 2048.66732901 C941.46543551 2048.65644376 927.81130076 2048.66095983 914.15712854 2048.66966614 C889.36288795 2048.6854643 864.5686672 2048.68664132 839.77442377 2048.67822379 C815.89014371 2048.67011929 792.00587302 2048.66696719 768.12159174 2048.67078513 C766.61699032 2048.67101757 765.1123889 2048.67124904 763.60778748 2048.67147954 C757.56029637 2048.67241107 751.51280527 2048.67336708 745.46531417 2048.67435883 C728.56367142 2048.67710885 711.66202863 2048.67882139 694.76038568 2048.67971724 C693.9909445 2048.67975818 693.22150332 2048.67979912 692.42874574 2048.67984129 C667.93813554 2048.68106778 643.44752819 2048.67769544 618.95691889 2048.6711685 C618.16345216 2048.67095776 617.36998544 2048.67074701 616.55247427 2048.67052988 C603.66988305 2048.66709569 590.78729189 2048.66343699 577.90470073 2048.65975936 C526.82179778 2048.64519214 475.73891842 2048.6458683 424.65601556 2048.66045111 C411.77967282 2048.66411516 398.90333006 2048.66774851 386.02698724 2048.6711685 C385.23397229 2048.67137985 384.44095734 2048.67159119 383.62391163 2048.67180894 C359.15711419 2048.67828466 334.69031872 2048.68101897 310.22352045 2048.67971724 C309.45465566 2048.67967649 308.68579088 2048.67963573 307.89362716 2048.67959375 C291.01026045 2048.67865601 274.12689393 2048.6767545 257.24352742 2048.67398573 C251.20168252 2048.67299846 245.15983761 2048.67205919 239.1179927 2048.6711336 C237.61515845 2048.67090143 236.1123242 2048.67066524 234.60948996 2048.67042501 C210.73813602 2048.66661953 186.86679238 2048.67087123 162.99543979 2048.67897544 C138.26766852 2048.68727861 113.53992094 2048.68414873 88.81215303 2048.66838156 C74.58232183 2048.6595332 60.35254474 2048.65894458 46.1227149 2048.67032008 C36.59283081 2048.67709438 27.06299143 2048.67277631 17.53311392 2048.65980577 C12.1202118 2048.65273577 6.7074207 2048.65008826 1.29452245 2048.66102372 C-32.5996601 2048.72440959 -66.09062192 2047.43950997 -99.50804694 2041.26933783 C-100.79855963 2041.03231146 -102.08907233 2040.7952851 -103.41869147 2040.55107611 C-188.70734784 2024.68877901 -269.98819487 1987.08622816 -336.50804694 1931.26933783 C-337.12164069 1930.75484076 -337.73523444 1930.24034369 -338.36742194 1929.7102558 C-340.16914972 1928.19389783 -341.96524357 1926.6712338 -343.75804694 1925.14433783 C-344.51649908 1924.49936347 -344.51649908 1924.49936347 -345.2902735 1923.84135932 C-355.40485557 1915.14045462 -365.02472397 1905.93929149 -374.45458014 1896.50810736 C-376.19943501 1894.76545466 -377.95218436 1893.03100621 -379.70531256 1891.29668158 C-385.6925149 1885.33863418 -391.34198627 1879.31896 -396.5739649 1872.67705267 C-398.60299787 1870.15113458 -400.74492147 1867.77142015 -402.94554694 1865.39433783 C-408.17983923 1859.63389484 -412.85456616 1853.49719982 -417.50804694 1847.26933783 C-417.94375006 1846.69054877 -418.37945319 1846.11175971 -418.82835944 1845.51543158 C-471.22097119 1775.81181068 -504.68847819 1694.71423626 -517.25804694 1608.51933783 C-517.40975851 1607.49678397 -517.40975851 1607.49678397 -517.56453497 1606.45357245 C-521.51855878 1579.4925392 -521.80276779 1552.69002563 -521.77118341 1525.50208683 C-521.76697387 1519.95637763 -521.77443704 1514.41068119 -521.78033591 1508.86497521 C-521.78906123 1499.16582509 -521.79042315 1489.46669609 -521.78683264 1479.76754302 C-521.78175721 1466.02055354 -521.78685857 1452.27358048 -521.79475126 1438.52659354 C-521.810345 1411.33386749 -521.81306971 1384.14115085 -521.81059519 1356.94842112 C-521.81025671 1353.19735883 -521.80993461 1349.44629653 -521.80962951 1345.69523424 C-521.80956847 1344.95006913 -521.80950742 1344.20490403 -521.80944453 1343.43715816 C-521.80817007 1326.88852807 -521.81077869 1310.33989927 -521.81415558 1293.79126957 C-521.81492633 1290.00723721 -521.81567108 1286.22320483 -521.81642059 1282.43917246 C-521.81672229 1280.92036093 -521.81702417 1279.4015494 -521.81732623 1277.88273787 C-521.81747591 1277.12986276 -521.81762559 1276.37698766 -521.81777981 1275.60129816 C-521.81808335 1274.07836887 -521.81838803 1272.55543958 -521.81869385 1271.03251028 C-521.82736129 1227.84658776 -521.83201485 1184.66066636 -521.82774622 1141.47474307 C-521.82766817 1140.67586101 -521.82759011 1139.87697895 -521.82750969 1139.05388835 C-521.82663697 1130.14649952 -521.8257077 1121.23911071 -521.82475905 1112.33172189 C-521.82467354 1111.5275916 -521.82458804 1110.72346131 -521.82449993 1109.89496343 C-521.82378934 1103.2152662 -521.82378934 1103.2152662 -521.82345771 1100.13913134 C-521.81792329 1048.71678751 -521.82546252 997.29446163 -521.84422858 945.87212103 C-521.84895124 932.91525989 -521.85363194 919.95839874 -521.85806544 907.0015375 C-521.85847542 905.80464224 -521.85847542 905.80464224 -521.85889369 904.58356727 C-521.86727213 879.96931819 -521.87194531 855.3550706 -521.872773 830.74082011 C-521.87279937 829.9674232 -521.87282573 829.1940263 -521.8728529 828.39719312 C-521.87339382 811.41490997 -521.87302092 794.43262693 -521.87181319 777.45034381 C-521.87138761 771.37304296 -521.87102247 765.29574211 -521.87068375 759.21844125 C-521.87059844 757.70671956 -521.87050951 756.19499787 -521.87041693 754.68327617 C-521.86897168 730.6542401 -521.87607148 706.62521627 -521.88742089 682.59618313 C-521.89910188 657.70389104 -521.89960082 632.81162071 -521.88757746 607.9193285 C-521.88088639 593.5887333 -521.88254227 579.25818676 -521.89616598 564.92759515 C-521.90444598 555.33526119 -521.90166709 545.74297003 -521.89019071 536.15063951 C-521.88396933 530.69859195 -521.88224168 525.24665606 -521.89405404 519.7946152 C-521.94198105 496.09099704 -521.34330216 472.82238039 -518.50804694 449.26933783 C-518.40340515 448.37377621 -518.29876337 447.47821459 -518.19095062 446.55551474 C-517.66723989 442.09150664 -517.07106168 437.64856186 -516.38304694 433.20683783 C-516.28366827 432.55864081 -516.18428961 431.91044379 -516.08189947 431.24260443 C-511.70278868 403.03898575 -504.65816797 375.28801533 -495.50804694 348.26933783 C-494.98307623 346.69901801 -494.98307623 346.69901801 -494.44750006 345.09697455 C-482.65414184 310.09573682 -466.64646616 276.82425531 -447.50804694 245.26933783 C-446.72663336 243.9793891 -446.72663336 243.9793891 -445.92943365 242.6633808 C-435.83575621 226.10663506 -424.47533642 210.51363206 -412.50804694 195.26933783 C-411.85707037 194.43531439 -411.20609381 193.60129096 -410.53539069 192.74199408 C-406.69130576 187.87176738 -402.72096175 183.11483956 -398.69554694 178.39433783 C-398.02193121 177.60168524 -398.02193121 177.60168524 -397.33470709 176.79301947 C-388.55644063 166.56793647 -379.27282733 156.84747418 -369.74681647 147.32280463 C-368.00416376 145.57794975 -366.26971531 143.82520041 -364.53539069 142.07207221 C-358.57734328 136.08486986 -352.5576691 130.4353985 -345.91576178 125.20341986 C-343.38984369 123.17438689 -341.01012925 121.03246329 -338.63304694 118.83183783 C-332.87224071 113.59721548 -326.7343233 108.9254487 -320.50804694 104.26933783 C-319.94521002 103.84426947 -319.38237311 103.41920111 -318.80248053 102.98125189 C-245.56008055 47.72201285 -157.05555401 11.96540806 -65.69044109 2.50313367 C-64.26722986 2.35066769 -62.84487299 2.18993196 -61.42366982 2.01976262 C-41.02083822 -0.41050213 -20.50996298 -0.02040423 0 0 Z " fill="#FEFEFE" transform="translate(521.5080469353124,-0.2693378310650587)"/>
<path d="M0 0 C26.07 0 52.14 0 79 0 C83.50042684 10.1259604 83.50042684 10.1259604 84.91259766 13.77392578 C85.2353215 14.60446976 85.55804535 15.43501373 85.89054871 16.29072571 C86.22830826 17.16673935 86.56606781 18.04275299 86.9140625 18.9453125 C87.28086624 19.89153976 87.64766998 20.83776703 88.02558899 21.81266785 C89.22771258 24.91588631 90.42645803 28.02039665 91.625 31.125 C92.47589696 33.32449998 93.32689146 35.52396224 94.17797852 37.72338867 C100.53808441 54.17030363 106.85482037 70.63377154 113.15234375 87.10473633 C118.3672727 100.74389627 123.60344909 114.37474878 128.85025024 128.00167847 C137.95438699 151.64723859 147.00054429 175.3144096 156 199 C157.67311354 196.49032968 158.6691003 194.53001392 159.72973633 191.75878906 C160.22974403 190.46043373 160.22974403 190.46043373 160.73985291 189.135849 C161.28048119 187.71508812 161.28048119 187.71508812 161.83203125 186.265625 C162.21561295 185.26628433 162.59919464 184.26694366 162.99440002 183.23731995 C164.27064344 179.90955905 165.54156005 176.57978963 166.8125 173.25 C167.71339867 170.89791347 168.61460847 168.54594608 169.51611328 166.1940918 C172.34953277 158.79814089 175.17563778 151.39941303 178 144 C178.44160461 142.84316711 178.88320923 141.68633423 179.3381958 140.4944458 C182.78449289 131.46576229 186.23007467 122.43680509 189.67370605 113.40710449 C198.83251072 89.39317588 208.07857312 65.41347331 217.35020447 41.44291687 C219.91203876 34.8186725 222.46691455 28.19180351 225.015625 21.5625 C225.85863759 19.37279199 226.70191903 17.18318782 227.54537964 14.99365234 C228.05014404 13.68183118 228.55401405 12.36966546 229.05691528 11.05712891 C229.7191882 9.32885061 230.38485653 7.6018745 231.05078125 5.875 C231.40825439 4.94429687 231.76572754 4.01359375 232.1340332 3.0546875 C233 1 233 1 234 0 C236.43396019 -0.09498646 238.83942952 -0.12558417 241.27368164 -0.11352539 C242.03460617 -0.11367142 242.7955307 -0.11381744 243.57951355 -0.1139679 C246.10642298 -0.11326862 248.63325962 -0.10547555 251.16015625 -0.09765625 C252.9075059 -0.09579212 254.65485607 -0.0943682 256.40220642 -0.09336853 C261.01031934 -0.08954293 265.61840095 -0.07971229 270.22650146 -0.06866455 C274.92508521 -0.05845134 279.62367399 -0.0538711 284.32226562 -0.04882812 C293.54819087 -0.03809005 302.77409284 -0.02101313 312 0 C311.21778644 4.237325 309.92956621 7.87064247 308.25390625 11.8515625 C307.97173248 12.52565659 307.68955872 13.19975067 307.39883423 13.89427185 C306.45771127 16.13968937 305.51006951 18.38229619 304.5625 20.625 C303.88862564 22.2295461 303.21521494 23.83428699 302.54223633 25.43920898 C301.10694995 28.86034475 299.66913742 32.2804033 298.22949219 35.69970703 C296.02337362 40.94132021 293.82678055 46.18688497 291.6328125 51.43359375 C290.8964878 53.19433737 290.16015966 54.95507955 289.42382812 56.71582031 C289.05636475 57.59451782 288.68890137 58.47321533 288.31030273 59.37854004 C286.40893855 63.92358181 284.50514998 68.46760782 282.6015625 73.01171875 C279.57274607 80.24233136 276.54684379 87.47415487 273.5234375 94.70703125 C265.5328246 113.81945763 257.50714253 132.91643799 249.43728638 151.99554443 C242.81832228 167.64869489 236.26825164 183.3297902 229.74331665 199.02233887 C223.26200869 214.60746755 216.72103149 230.16637968 210.13873291 245.70910645 C205.74375094 256.08887692 201.37445997 266.47833751 197.06640625 276.89453125 C196.66861465 277.85620712 196.27082306 278.817883 195.86097717 279.80870056 C193.95800112 284.41224785 192.0591489 289.01745344 190.1652832 293.62475586 C189.49302141 295.25505386 188.82074062 296.88534404 188.1484375 298.515625 C187.68897484 299.63859734 187.68897484 299.63859734 187.2202301 300.78425598 C185.11297691 305.88702309 185.11297691 305.88702309 184 307 C182.28134591 307.0935919 180.55884256 307.11744611 178.83764648 307.11352539 C177.73658066 307.11344986 176.63551483 307.11337433 175.50108337 307.11329651 C174.3031868 307.10813522 173.10529022 307.10297394 171.87109375 307.09765625 C170.65172623 307.0962413 169.4323587 307.09482635 168.17604065 307.09336853 C164.2631693 307.08774967 160.35035419 307.07519396 156.4375 307.0625 C153.79231853 307.05748743 151.14713617 307.0529241 148.50195312 307.04882812 C142.00128274 307.03777411 135.50064539 307.02101764 129 307 C124.65305689 297.84039806 120.5106807 288.64342822 116.6875 279.25 C115.64150448 276.70275877 114.59469337 274.15586572 113.546875 271.609375 C113.26851303 270.93205322 112.99015106 270.25473145 112.70335388 269.55688477 C108.98687828 260.52175587 105.21134541 251.51127877 101.4375 242.5 C101.0575589 241.59240936 100.6776178 240.68481873 100.28616333 239.74972534 C94.03597141 224.82225608 87.74305817 209.91305653 81.43893433 195.00830078 C74.81912241 179.35317743 68.26881851 163.6698644 61.74230957 147.97564697 C55.2745286 132.42552367 48.75199941 116.89940459 42.19100952 101.38839722 C35.62361412 85.86165043 29.09834598 70.31772451 22.59765625 54.76293945 C18.85138838 45.80079079 15.09481593 36.84318314 11.31640625 27.89453125 C10.75120018 26.55531364 10.75120018 26.55531364 10.17457581 25.18904114 C8.37624663 20.92851875 6.57602556 16.66881252 4.77270508 12.41040039 C4.13746473 10.90644141 3.50228839 9.40245538 2.8671875 7.8984375 C2.57441422 7.20905594 2.28164093 6.51967438 1.97999573 5.80940247 C0 1.11348574 0 1.11348574 0 0 Z " fill="#478AC9" transform="translate(1191,817)"/>
<path d="M0 0 C1.31758899 0.23634337 2.63530559 0.47197607 3.953125 0.70703125 C26.25199047 4.9400276 48.76729908 13.37797562 67 27 C57.66666667 45.66666667 48.33333333 64.33333333 39 83 C35.64820123 81.69853486 32.80550504 80.30238495 29.8125 78.3125 C13.72036862 68.56689606 -6.34901554 62.61897322 -25.125 62.5 C-25.96522705 62.49363525 -26.8054541 62.48727051 -27.67114258 62.48071289 C-37.3755472 62.67994048 -45.89915716 65.19897053 -53 72 C-57.98707872 77.84306984 -59.38493507 82.59994553 -59.265625 90.15625 C-58.54564825 97.86423639 -54.24059291 102.06955933 -48.60620117 106.97338867 C-44.3390874 110.29154431 -39.70337375 112.66668655 -34.875 115.0625 C-33.85946045 115.57852783 -32.8439209 116.09455566 -31.79760742 116.6262207 C-22.40646895 121.37062833 -12.91259499 125.85342179 -3.2734375 130.0703125 C18.00518369 139.41838455 35.96848856 150.0272859 53 166 C53.61230469 166.53625 54.22460938 167.0725 54.85546875 167.625 C64.23030546 176.20608623 70.21577239 188.04311275 74 200 C74.24492187 200.7425 74.48984375 201.485 74.7421875 202.25 C80.59570736 223.41889373 74.05866463 250.71407443 63.625 269.4375 C49.04365325 292.8124221 25.54880174 306.21730005 -0.81958008 312.69238281 C-49.79917208 322.84189142 -100.02360705 313.72454183 -141.97363281 286.72998047 C-145.08510794 284.61301257 -148.06406935 282.35214521 -151 280 C-152.33058484 278.9963458 -153.66304571 277.99515376 -155 277 C-154.41942598 273.08079721 -153.25045676 270.35934403 -151.18359375 266.9921875 C-150.5915918 266.01781738 -149.99958984 265.04344727 -149.38964844 264.03955078 C-148.42333496 262.47309814 -148.42333496 262.47309814 -147.4375 260.875 C-146.42597933 259.21568197 -145.41448903 257.55634478 -144.4045105 255.89608765 C-143.69905238 254.73659154 -142.99275949 253.57760296 -142.28567505 252.4190979 C-139.6663143 248.12083543 -137.09739003 243.79483246 -134.55078125 239.453125 C-134.18911362 238.83748688 -133.82744598 238.22184875 -133.45481873 237.58755493 C-132.03691476 235.1732423 -130.61939618 232.75874895 -129.20944214 230.33978271 C-128.23223714 228.66424718 -127.24905333 226.99220295 -126.265625 225.3203125 C-125.42692871 223.88582764 -125.42692871 223.88582764 -124.57128906 222.42236328 C-123.19540093 220.30123804 -121.86915741 218.68393194 -120 217 C-119.2471875 217.61746094 -118.494375 218.23492188 -117.71875 218.87109375 C-109.31129612 225.62878817 -100.53934072 230.9959784 -91 236 C-90.32501465 236.35868164 -89.6500293 236.71736328 -88.95458984 237.08691406 C-68.49818024 247.90610361 -48.14462534 254.2886423 -25 249 C-15.85968163 246.02206036 -8.92291387 242.84903124 -4.125 234.25 C-1.84055932 229.29180881 -1.31826088 225.37816416 -2 220 C-2.0721875 219.2471875 -2.144375 218.494375 -2.21875 217.71875 C-3.34120675 210.26971886 -7.43293661 205.92328399 -13.12109375 201.26171875 C-24.75433613 192.72805866 -37.75309258 186.54970928 -50.8125 180.5625 C-83.47967089 165.57508023 -83.47967089 165.57508023 -96 155 C-96.50080078 154.58137695 -97.00160156 154.16275391 -97.51757812 153.73144531 C-113.860747 139.93486533 -127.15685681 120.48877073 -129.21875 98.68701172 C-130.67742044 75.89984438 -124.67451645 53.70872098 -110 36 C-109.00226563 34.75863281 -109.00226563 34.75863281 -107.984375 33.4921875 C-92.14273045 14.77557783 -68.0017114 1.06872492 -43.52978516 -1.79345703 C-29.14175254 -2.96816033 -14.16870359 -2.93204034 0 0 Z " fill="#478AC9" transform="translate(255,813)"/>
<path d="M0 0 C2.30154216 -0.00217606 4.6025956 -0.02035549 6.90405273 -0.03930664 C40.28977697 -0.16759078 68.84385035 12.48232038 92.67553711 35.65405273 C111.2394168 55.30242025 118.1964216 80.08532447 117.45288086 106.47045898 C116.20154735 133.63650575 103.47021278 156.49848512 83.73071289 174.77758789 C69.34458309 187.48056253 51.56811871 194.69568435 33.13647461 199.18530273 C32.34096191 199.3825293 31.54544922 199.57975586 30.72583008 199.78295898 C22.62929465 201.52887601 14.56451238 201.48915336 6.32250977 201.44604492 C3.90477052 201.43538341 1.48778425 201.44596109 -0.92993164 201.45874023 C-14.48383181 201.47354283 -27.53510479 200.55326938 -40.42602539 195.99780273 C-41.31660645 195.69028076 -42.2071875 195.38275879 -43.12475586 195.06591797 C-67.75095965 186.33311119 -89.76226319 169.75993146 -101.86352539 146.18530273 C-104.12359297 141.28644693 -106.03794199 136.2608897 -107.86352539 131.18530273 C-108.22446289 130.19401367 -108.58540039 129.20272461 -108.95727539 128.18139648 C-116.2633006 104.02742522 -112.74353954 76.72459463 -101.35180664 54.60717773 C-87.67789465 29.51051374 -62.76111936 12.43013632 -35.86352539 4.18530273 C-23.87412302 0.71621416 -12.40115079 -0.001308 0 0 Z " fill="#478AC9" transform="translate(1587.863525390625,927.814697265625)"/>
<path d="M0 0 C1.03833984 0.79277344 1.03833984 0.79277344 2.09765625 1.6015625 C20.78532544 16.68544658 29.11370152 39.90961216 32 63 C32 70.92 32 78.84 32 87 C-13.87 87 -59.74 87 -107 87 C-103.99439309 104.65390071 -103.99439309 104.65390071 -92.70703125 117.65234375 C-80.05796181 125.67322654 -65.90485806 127.83404908 -51.14453125 125.3515625 C-38.86589366 122.42271317 -30.30431681 117.14263236 -22.0703125 107.625 C-20 106 -20 106 -17.64605713 106.27482605 C-15.10981008 106.96990564 -12.95039672 107.82224419 -10.59277344 108.9777832 C-9.7555072 109.3852327 -8.91824097 109.79268219 -8.05560303 110.21247864 C-7.16584778 110.6541185 -6.27609253 111.09575836 -5.359375 111.55078125 C-4.43658752 112.00599655 -3.51380005 112.46121185 -2.56304932 112.93022156 C-0.61822465 113.89286675 1.32496062 114.85883019 3.26660156 115.82788086 C6.24629014 117.31065387 9.23597932 118.77177309 12.2265625 120.23242188 C14.11523562 121.17056295 16.0032791 122.10997293 17.890625 123.05078125 C18.78847717 123.48634842 19.68632935 123.92191559 20.61138916 124.37068176 C21.43604675 124.78758774 22.26070435 125.20449371 23.11035156 125.6340332 C23.83917542 125.9951973 24.56799927 126.35636139 25.31890869 126.72846985 C27 128 27 128 27.84954834 129.96989441 C28.10270678 133.38586444 25.8025869 135.54424714 23.75 138.0625 C23.29326904 138.63395752 22.83653809 139.20541504 22.3659668 139.79418945 C5.78980426 160.16758438 -14.474057 171.43629501 -40 177 C-41.02222656 177.22558594 -42.04445313 177.45117188 -43.09765625 177.68359375 C-73.20131043 183.09255268 -104.30867554 178.72923453 -130 162 C-133.46407786 159.47203097 -136.74922848 156.79472804 -140 154 C-140.63421875 153.48695313 -141.2684375 152.97390625 -141.921875 152.4453125 C-159.01943009 138.44952625 -171.63318505 116.14132069 -174.64453125 94.23828125 C-177.56781393 64.21639359 -171.87277835 39.09268774 -152.8359375 15.38671875 C-136.08506336 -4.82585549 -111.44287306 -19.38616056 -85.19921875 -22.79296875 C-54.40302446 -24.78588486 -24.51472365 -19.7244903 0 0 Z " fill="#478AC9" transform="translate(525,950)"/>
<path d="M0 0 C13.46885992 11.1500452 21.22820687 26.82404455 23.05036736 44.08842278 C23.44269696 49.31910809 23.37933003 54.55456021 23.36352539 59.79711914 C23.36367142 61.07615112 23.36381744 62.35518311 23.3639679 63.67297363 C23.36425292 67.15374896 23.3584041 70.6344893 23.35139394 74.11525655 C23.34511108 77.76274386 23.34455272 81.41023211 23.34336853 85.057724 C23.34026969 91.95292078 23.33207593 98.84810156 23.32201904 105.74329132 C23.30871437 115.0691356 23.3033463 124.3949843 23.29751682 133.72083569 C23.28813497 148.39723575 23.26820642 163.07360208 23.25 177.75 C1.47 177.75 -20.31 177.75 -42.75 177.75 C-42.78867187 165.48908203 -42.78867187 165.48908203 -42.828125 152.98046875 C-42.85650781 147.12905228 -42.88737687 141.2776901 -42.9218235 135.42631054 C-42.96606405 127.85525136 -43.00452771 120.28431078 -43.02099609 112.71313477 C-43.03545919 106.07346456 -43.07067036 99.43410916 -43.11830902 92.79458046 C-43.13309995 90.26660528 -43.14103969 87.73858006 -43.14188385 85.21056175 C-43.14426202 81.65847159 -43.17141242 78.10734325 -43.20410156 74.55541992 C-43.1990712 73.51963303 -43.19404083 72.48384613 -43.18885803 71.41667175 C-43.34016576 60.72885914 -46.77408761 50.94515372 -53.75 42.75 C-61.60981451 35.24875367 -68.85691495 33.31007022 -79.69018555 33.39086914 C-91.02940567 33.70262269 -98.85252528 38.82837398 -106.75 46.75 C-114.33841756 56.3239175 -116.04358504 65.02821695 -116.06884766 76.93945312 C-116.07889328 78.03302124 -116.0889389 79.12658936 -116.09928894 80.2532959 C-116.13002912 83.84594222 -116.14713076 87.43851432 -116.1640625 91.03125 C-116.18278149 93.53089024 -116.20235545 96.03052422 -116.2227478 98.53015137 C-116.26876731 104.4230719 -116.30620312 110.31599741 -116.33942068 116.20900297 C-116.38824651 124.76174878 -116.45457196 133.31436232 -116.51873779 141.86700439 C-116.60686273 153.827962 -116.67669004 165.78890109 -116.75 177.75 C-138.53 177.75 -160.31 177.75 -182.75 177.75 C-182.75 114.72 -182.75 51.69 -182.75 -13.25 C-160.97 -13.25 -139.19 -13.25 -116.75 -13.25 C-116.75 -6.65 -116.75 -0.05 -116.75 6.75 C-115.656875 5.76 -114.56375 4.77 -113.4375 3.75 C-79.85908013 -25.37473765 -36.21445812 -26.1167951 0 0 Z " fill="#488AC9" transform="translate(769.75,946.25)"/>
<path d="M0 0 C9.79589995 -0.44271284 19.58937961 -0.77900094 29.39328957 -0.98443127 C33.94778213 -1.08310896 38.49537835 -1.2165211 43.04589844 -1.43334961 C72.29897181 -2.79069736 72.29897181 -2.79069736 79.93261719 1.74090576 C84.53465819 5.99757806 87.31063784 10.98807726 89.87786865 16.65145874 C91.45913382 19.96093449 93.48293594 22.50047372 95.796875 25.34375 C96.46460938 26.21644531 97.13234375 27.08914063 97.8203125 27.98828125 C98.45710938 28.81714844 99.09390625 29.64601563 99.75 30.5 C101.09976997 32.25979443 102.44876606 34.02018279 103.796875 35.78125 C104.36760742 36.52439453 104.93833984 37.26753906 105.52636719 38.03320312 C106.7377877 39.65003607 107.87932871 41.31899306 109 43 C115.21073894 35.6884158 120.95639106 28.09682998 126.59814453 20.3425293 C127.71143199 18.81536047 128.8407313 17.29972796 129.9861908 15.79653931 C132.08139516 12.98016393 132.08139516 12.98016393 133.92454529 9.70878601 C139.21278949 1.08549976 139.21278949 1.08549976 143.86295128 -0.72554016 C149.13701369 -1.82168949 154.4715336 -1.49383078 159.8203125 -1.26953125 C161.53230769 -1.245243 163.24439408 -1.22675761 164.95651245 -1.21379089 C169.43391391 -1.16446735 173.90571304 -1.03709111 178.38092041 -0.89263916 C182.95890504 -0.75894193 187.53780776 -0.70013134 192.1171875 -0.63476562 C201.08056883 -0.4959063 210.03981629 -0.27445547 219 0 C218.06818702 1.41323133 217.13425312 2.82506434 216.19946289 4.23632812 C215.67961319 5.02269653 215.15976349 5.80906494 214.62416077 6.6192627 C212.06058859 10.3770138 209.25761363 13.93309112 206.4375 17.5 C205.1973238 19.08156654 203.95775454 20.66360917 202.71875 22.24609375 C202.09742188 23.03870605 201.47609375 23.83131836 200.8359375 24.64794922 C198.01114032 28.26684497 195.22205647 31.9125995 192.4375 35.5625 C191.90785645 36.25633789 191.37821289 36.95017578 190.83251953 37.66503906 C189.76213969 39.06769553 188.69198981 40.47052751 187.62207031 41.87353516 C184.85494834 45.50111378 182.0838169 49.12562566 179.3125 52.75 C178.77061035 53.45874268 178.2287207 54.16748535 177.67041016 54.89770508 C174.79924481 58.65166876 171.92527061 62.40342924 169.04370117 66.14941406 C167.83666547 67.7185844 166.63120703 69.2889676 165.42578125 70.859375 C163.70474672 73.08757429 161.97424368 75.30542818 160.23046875 77.515625 C159.54537231 78.39009277 159.54537231 78.39009277 158.84643555 79.28222656 C157.57868688 80.89961181 156.30515636 82.5124603 155.03125 84.125 C153.19123236 86.72933266 152.01628005 88.99534593 151 92 C151.36649658 92.44166504 151.73299316 92.88333008 152.1105957 93.33837891 C158.38722047 100.91027346 164.65084274 108.48461819 170.6875 116.25 C174.6270717 121.31526637 178.70376194 126.23557537 182.87792969 131.10864258 C186.17173341 134.97225798 189.32627966 138.92589784 192.4375 142.9375 C196.16578744 147.74166468 200.01358659 152.40789301 204 157 C208.48659823 162.16916854 212.77796995 167.45332721 216.97192383 172.86206055 C220.91993746 177.94219863 225.03435465 182.86626201 229.19921875 187.76953125 C231 190 231 190 231 191 C220.77765327 191.34901431 210.5567432 191.61478305 200.32963181 191.77718258 C195.57925409 191.85517168 190.8329775 191.9607297 186.08496094 192.1315918 C181.4939344 192.29575221 176.90682395 192.38448606 172.31308746 192.42315865 C170.56957574 192.45067573 168.82625644 192.50442356 167.08443451 192.58595085 C153.83038069 193.18109487 153.83038069 193.18109487 149.09170151 189.52946281 C145.56110095 185.96881895 142.76233565 181.99120141 140.10924721 177.7507534 C138.70494138 175.53430138 137.11820216 173.49396287 135.4765625 171.44921875 C134.52452192 170.19646599 133.57396567 168.94258362 132.625 167.6875 C131.54744902 166.27169835 130.469301 164.85635095 129.390625 163.44140625 C128.84341797 162.72355957 128.29621094 162.00571289 127.73242188 161.26611328 C124.62911312 157.20679651 121.50510495 153.16367431 118.375 149.125 C117.78283691 148.35760498 117.19067383 147.59020996 116.58056641 146.79956055 C116.02546387 146.08453369 115.47036133 145.36950684 114.8984375 144.6328125 C114.41036621 144.00262207 113.92229492 143.37243164 113.41943359 142.72314453 C112.03272036 141.03972142 110.56838844 139.5138055 109 138 C101.97485121 146.72711783 95.02156605 155.4986626 88.22216797 164.40283203 C86.97639923 166.03084224 85.72540251 167.65469779 84.47265625 169.27734375 C84.04807129 169.8276123 83.62348633 170.37788086 83.18603516 170.94482422 C79.72940863 175.4234334 79.72940863 175.4234334 78.43856812 177.01631165 C76.86832148 179.09068342 76.86832148 179.09068342 75.41226196 181.93132019 C70.51069995 190.08982234 70.51069995 190.08982234 66.13932228 191.67453194 C60.67868197 192.70362618 55.14530556 192.3768085 49.62109375 192.171875 C47.84039557 192.14946256 46.05962282 192.1323956 44.27882385 192.12042236 C39.61611674 192.07483829 34.95797449 191.95719794 30.29705811 191.82397461 C25.53134927 191.70068932 20.76489441 191.64630121 15.99804688 191.5859375 C6.6633706 191.45766032 -2.6679336 191.25316575 -12 191 C-9.73409905 187.57673973 -7.49007485 184.23843041 -4.86328125 181.08203125 C-4.29085693 180.39101318 -3.71843262 179.69999512 -3.12866211 178.98803711 C-2.22966187 177.91114624 -2.22966187 177.91114624 -1.3125 176.8125 C-0.04936384 175.28915812 1.21365719 173.76572076 2.4765625 172.2421875 C3.08532227 171.50967773 3.69408203 170.77716797 4.32128906 170.02246094 C10.67339865 162.3696285 16.92534139 154.63379654 23.19458008 146.91308594 C28.47670841 140.40938313 33.78278693 133.92548013 39.09375 127.4453125 C44.13578844 121.28891049 49.15776586 115.11648181 54.17358398 108.9387207 C58.76841041 103.28098812 63.37878581 97.63620956 68 92 C66.41684937 88.49563011 64.32279679 85.61946649 62 82.5625 C61.60264648 82.03809326 61.20529297 81.51368652 60.79589844 80.97338867 C57.13245085 76.14774886 53.43488492 71.34802627 49.734375 66.55078125 C46.6445068 62.54282629 43.57237314 58.52137216 40.5 54.5 C35.0144964 47.32210068 29.51248721 40.1571965 24 33 C21.57620032 29.85303386 19.15318307 26.7054908 16.734375 23.5546875 C14.66954611 20.86607597 12.59367642 18.18621501 10.515625 15.5078125 C9.32281349 13.96362136 8.13010418 12.41935127 6.9375 10.875 C6.36475342 10.13991211 5.79200684 9.40482422 5.2019043 8.64746094 C4.66992432 7.9568457 4.13794434 7.26623047 3.58984375 6.5546875 C3.11409912 5.94093262 2.63835449 5.32717773 2.14819336 4.69482422 C1 3 1 3 0 0 Z " fill="#478AC9" transform="translate(1726,933)"/>
<path d="M0 0 C21.78 0 43.56 0 66 0 C66 23.43 66 46.86 66 71 C79.2 71 92.4 71 106 71 C106 87.5 106 104 106 121 C92.8 121 79.6 121 66 121 C66.06202686 132.76878597 66.06202686 132.76878597 66.16015625 144.53710938 C66.20824494 149.34692566 66.25238075 154.15652027 66.27099609 158.96655273 C66.28629844 162.85072449 66.32097838 166.73431065 66.36830902 170.61821938 C66.38298456 172.08948955 66.39103294 173.56084339 66.39188385 175.03218651 C66.4042525 185.70932438 67.21800025 196.1045298 73.125 205.3125 C77.44640119 207.84897461 81.11332998 207.80502945 86 207 C88.71872387 206.07071868 91.27831124 205.01338934 93.87109375 203.77734375 C96 203 96 203 99 204 C100.0087659 206.51780007 100.81401744 208.91841753 101.55859375 211.515625 C101.78901871 212.28243591 102.01944366 213.04924683 102.2568512 213.83929443 C102.99535199 216.30624153 103.71669169 218.77783207 104.4375 221.25 C104.91878001 222.87013131 105.4011897 224.48992749 105.88476562 226.109375 C106.82577562 229.2642785 107.75892879 232.42134993 108.68701172 235.58007812 C110.16275614 240.58290451 111.72980091 245.55499186 113.32055664 250.52246094 C114 253 114 253 114 256 C91.41037509 266.44204541 64.39387917 272.30412537 40.046875 264.25390625 C24.20501465 257.73437141 13.89766391 247.83403268 6.8125 232.3125 C1.70256006 219.92557753 -0.17961646 206.87118324 -0.11352539 193.54272461 C-0.11367142 192.75137115 -0.11381744 191.9600177 -0.1139679 191.14468384 C-0.11327869 188.5638746 -0.10553343 185.98314017 -0.09765625 183.40234375 C-0.09578854 181.59916727 -0.0943663 179.79599028 -0.09336853 177.99281311 C-0.08957117 173.27302624 -0.07976496 168.55327069 -0.06866455 163.83349609 C-0.05839031 159.00684025 -0.05385808 154.18017928 -0.04882812 149.35351562 C-0.03813991 139.90232785 -0.02056597 130.45117145 0 121 C-8.91 121 -17.82 121 -27 121 C-27 104.5 -27 88 -27 71 C-18.09 71 -9.18 71 0 71 C0 47.57 0 24.14 0 0 Z " fill="#478AC9" transform="translate(842,862)"/>
<path d="M0 0 C21.78 0 43.56 0 66 0 C66 63.03 66 126.06 66 191 C44.22 191 22.44 191 0 191 C0 127.97 0 64.94 0 0 Z " fill="#488AC9" transform="translate(978,933)"/>
<path d="M0 0 C39.6 0 79.2 0 120 0 C120 18.48 120 36.96 120 56 C80.4 56 40.8 56 0 56 C0 37.52 0 19.04 0 0 Z " fill="#478AC9" transform="translate(1091,988)"/>
<path d="M0 0 C2.03993213 1.44382293 3.88741397 2.9753481 5.74609375 4.64453125 C6.65294922 5.41410156 6.65294922 5.41410156 7.578125 6.19921875 C15.88427048 13.76342095 20.16678254 23.57630607 20.9609375 34.63671875 C21.39329552 49.06018219 17.92094089 61.01774816 8.24609375 71.83203125 C-2.44423473 81.98577954 -15.47694121 84.24312384 -29.625 83.98828125 C-41.14058009 83.42089484 -50.8620345 77.61301405 -58.50390625 69.26953125 C-61.41978988 65.66616286 -63.45028493 61.90107757 -65.25390625 57.64453125 C-65.55425781 56.99097656 -65.85460938 56.33742188 -66.1640625 55.6640625 C-70.4833584 44.95622663 -69.17525911 31.32788947 -65.546875 20.54296875 C-61.11669402 10.38794203 -51.25531843 1.20456209 -41.25390625 -3.35546875 C-28.38752589 -7.86433796 -11.73384681 -7.05657685 0 0 Z " fill="#FEFEFE" transform="translate(1614.25390625,989.35546875)"/>
<path d="M0 0 C10.14756034 6.24914507 17.61084323 15.05284604 20.71484375 26.671875 C22.10959142 39.38422511 20.73553555 49.52120104 13.02734375 59.921875 C5.61779657 68.67861257 -3.2797569 73.30848935 -14.59765625 74.484375 C-26.37974327 75.11021334 -35.15964028 72.60286003 -44.2890625 65.00390625 C-52.96469993 56.81545364 -56.88945475 47.71780554 -57.47265625 35.859375 C-57.24587543 25.15944337 -53.92007611 16.88615984 -46.78515625 8.859375 C-33.33965439 -2.90543913 -16.97827032 -8.29117179 0 0 Z " fill="#488AC9" transform="translate(1030.28515625,818.328125)"/>
<path d="M0 0 C6.04939917 4.67251683 10.3182064 9.8485504 13 17 C13.495 21.455 13.495 21.455 14 26 C-9.76 26 -33.52 26 -58 26 C-55.64082474 11.84494845 -55.64082474 11.84494845 -49 5 C-48.4740625 4.42378906 -47.948125 3.84757813 -47.40625 3.25390625 C-35.48769918 -8.46015962 -13.70731122 -7.99748145 0 0 Z " fill="#FDFDFE" transform="translate(478,975)"/>
</svg>
