<svg version="1.1" id="Layer_1" xmlns="http://www.w3.org/2000/svg" xmlns:xlink="http://www.w3.org/1999/xlink" x="0px" y="0px"
	 width="100%" viewBox="0 0 2048 2048" enable-background="new 0 0 2048 2048" xml:space="preserve">
<path fill="#FFFFFF" opacity="1.000000" stroke="none" 
	d="
M1108.000000,2049.000000 
	C738.666687,2049.000000 369.833344,2049.000000 1.000000,2049.000000 
	C1.000000,1366.333374 1.000000,683.666687 1.000000,1.000000 
	C683.666687,1.000000 1366.333374,1.000000 2049.000000,1.000000 
	C2049.000000,683.666687 2049.000000,1366.333374 2049.000000,2049.000000 
	C1735.500000,2049.000000 1422.000000,2049.000000 1108.000000,2049.000000 
M1502.074707,817.869080 
	C1478.243164,817.864319 1454.410889,817.940735 1430.580566,817.767578 
	C1426.977783,817.741455 1425.363037,818.904663 1424.090576,822.239990 
	C1403.813232,875.387939 1383.402344,928.484924 1363.018311,981.592224 
	C1358.291138,993.907776 1353.551147,1006.218445 1348.555786,1019.210938 
	C1347.814209,1017.507385 1347.383789,1016.613831 1347.029419,1015.691040 
	C1322.348267,951.405884 1297.641846,887.130310 1273.080200,822.799500 
	C1271.689453,819.156799 1270.107544,817.698242 1265.990601,817.741394 
	C1243.328369,817.978516 1220.662109,817.854736 1197.997314,817.854736 
	C1196.363892,817.854736 1194.730347,817.854736 1192.349243,817.854736 
	C1193.186768,820.170227 1193.719116,821.867249 1194.403564,823.500549 
	C1210.607910,862.162659 1226.827515,900.818359 1243.046509,939.474243 
	C1268.340210,999.758057 1293.675049,1060.024780 1318.833984,1120.364746 
	C1320.391724,1124.100708 1322.304321,1125.158569 1326.193237,1125.097534 
	C1341.354980,1124.859985 1356.524536,1124.873535 1371.686646,1125.096924 
	C1375.144165,1125.147827 1376.607544,1123.930542 1377.875610,1120.891968 
	C1399.145752,1069.921387 1420.531616,1018.999207 1441.885986,968.063782 
	C1462.018311,920.042725 1482.161011,872.026001 1502.206665,823.968811 
	C1502.958740,822.165466 1502.737549,819.956116 1502.074707,817.869080 
M168.843842,1124.652954 
	C195.925217,1130.883545 223.134506,1132.432617 250.558640,1127.005371 
	C267.252502,1123.701660 282.921753,1117.813965 296.774811,1107.849609 
	C318.708221,1092.073120 328.303192,1069.645996 331.163025,1043.473511 
	C333.447754,1022.564087 329.169128,1003.623169 315.479706,987.451477 
	C303.068268,972.789490 287.971130,961.289062 270.714874,952.862732 
	C254.425446,944.908508 237.742645,937.751282 221.544922,929.621765 
	C214.630997,926.151855 208.185349,921.508057 202.121216,916.655090 
	C196.312958,912.006958 194.938873,905.267456 196.388000,898.048706 
	C198.251541,888.765503 203.954514,882.523987 212.565781,879.213074 
	C226.914993,873.696167 241.529037,874.980896 255.631927,879.759827 
	C268.932800,884.266968 281.790497,890.081909 295.226288,895.475342 
	C303.589447,878.973694 312.583313,861.342957 321.361450,843.605530 
	C321.861176,842.595825 321.060730,839.989014 320.074707,839.354797 
	C314.346619,835.670349 308.633759,831.792297 302.449982,829.017761 
	C283.058624,820.317017 262.845856,814.608093 241.541016,812.652527 
	C202.925552,809.108032 170.002457,820.702759 145.800430,851.179810 
	C125.074669,877.279175 120.705292,907.090698 135.001831,937.956970 
	C144.300720,958.033264 160.738922,971.725098 180.039505,981.821411 
	C193.744644,988.990784 208.081177,994.961243 221.722870,1002.240784 
	C230.766205,1007.066467 239.959808,1012.278992 247.521408,1019.062622 
	C260.095703,1030.343140 256.580139,1051.467651 241.551682,1059.239502 
	C226.980820,1066.774780 211.402786,1067.495117 195.889740,1063.349487 
	C175.397293,1057.873169 157.080856,1047.724609 140.259125,1034.861206 
	C138.728699,1033.691040 137.160843,1032.569580 135.620621,1031.433105 
	C134.960739,1032.148682 134.548691,1032.467285 134.300186,1032.883423 
	C123.631470,1050.749878 113.048340,1068.668335 102.249870,1086.455933 
	C100.494965,1089.346680 101.206375,1090.865723 103.568275,1092.594238 
	C123.208138,1106.967163 144.283478,1118.410278 168.843842,1124.652954 
M1545.586914,936.057922 
	C1544.351196,936.551514 1543.110352,937.032776 1541.880493,937.540466 
	C1502.181519,953.925964 1474.300049,987.754822 1477.150513,1035.325195 
	C1479.567749,1075.664307 1500.573853,1103.336548 1536.755371,1119.874634 
	C1557.181274,1129.211060 1578.960449,1131.281372 1601.177490,1130.079834 
	C1626.429688,1128.714111 1649.433228,1121.261230 1669.507568,1105.481812 
	C1721.087891,1064.936890 1717.612549,984.767029 1662.606201,949.021179 
	C1626.085693,925.288391 1587.048950,922.995422 1545.586914,936.057922 
M727.171265,1011.816406 
	C727.171265,1049.424072 727.171265,1087.031738 727.171265,1124.657349 
	C749.836731,1124.657349 771.563660,1124.657349 793.486755,1124.657349 
	C793.578186,1123.524536 793.700317,1122.717163 793.700500,1121.909790 
	C793.708984,1081.260498 794.035217,1040.606689 793.461548,999.965515 
	C793.328247,990.520752 791.323425,980.684387 788.091553,971.786682 
	C780.896545,951.978210 764.867981,941.221924 745.730713,934.525391 
	C713.264648,923.164917 683.507446,926.196106 657.955261,951.258972 
	C657.001038,952.194824 655.776245,952.854858 653.920105,954.187134 
	C653.920105,946.844360 653.920105,940.578735 653.920105,934.113892 
	C631.956726,934.113892 610.384277,934.113892 588.511230,934.113892 
	C588.511230,997.744751 588.511230,1061.115234 588.511230,1124.636475 
	C610.473206,1124.636475 632.175293,1124.636475 654.157776,1124.636475 
	C654.157776,1122.456055 654.157776,1120.636963 654.157776,1118.817871 
	C654.157837,1086.165161 654.206360,1053.512329 654.130127,1020.859863 
	C654.105347,1010.237366 657.148926,1000.942444 664.630798,993.185242 
	C675.285889,982.138184 687.933167,977.045105 703.037842,981.363892 
	C717.630249,985.536133 724.518799,996.624573 727.171265,1011.816406 
M421.299042,933.849304 
	C398.054169,941.431702 379.917450,955.920288 366.600159,976.075562 
	C337.872162,1019.554626 346.879578,1081.813843 399.544739,1114.724976 
	C421.821686,1128.646240 446.347992,1132.198486 472.018311,1129.620483 
	C493.583313,1127.454834 513.849609,1121.453247 531.104736,1107.697021 
	C540.505188,1100.202637 548.575684,1091.458374 554.576843,1080.404297 
	C540.965820,1073.598511 527.737854,1066.983032 514.508728,1060.369751 
	C507.274902,1056.753540 507.044220,1056.537231 501.421875,1062.465332 
	C482.668823,1082.238037 451.162994,1081.707031 433.108765,1068.785400 
	C422.926117,1061.497681 419.475037,1051.348633 419.600403,1038.653931 
	C465.837494,1038.653931 511.723602,1038.653931 558.930725,1038.653931 
	C557.858521,1026.453247 557.612122,1014.938599 555.692017,1003.710144 
	C552.256714,983.621643 543.498047,965.979309 527.472839,952.831238 
	C495.966675,926.981567 460.279083,923.073120 421.299042,933.849304 
M1911.500000,933.854614 
	C1902.167236,933.854614 1892.744629,934.664307 1883.525391,933.641357 
	C1872.978394,932.471130 1866.414307,936.127991 1860.747070,945.005981 
	C1853.532715,956.307922 1844.791138,966.634888 1836.329468,977.885681 
	C1834.567749,975.570190 1833.167358,973.752930 1831.791504,971.917358 
	C1823.100342,960.322571 1814.340576,948.777893 1805.787842,937.081848 
	C1804.010864,934.651733 1802.155762,933.773987 1799.181519,933.789551 
	C1776.516602,933.908386 1753.850952,933.851501 1731.185425,933.863892 
	C1729.919922,933.864563 1728.654419,933.994080 1726.395386,934.118408 
	C1749.928955,964.818848 1772.959961,994.863647 1796.071655,1025.013794 
	C1768.976929,1058.246704 1742.094604,1091.218872 1714.925659,1124.542725 
	C1716.103149,1124.797607 1716.545410,1124.976929 1716.987671,1124.977173 
	C1741.819702,1124.994385 1766.652100,1125.046387 1791.483032,1124.886230 
	C1793.102783,1124.875732 1795.154663,1123.595215 1796.249146,1122.277344 
	C1800.929321,1116.642578 1805.332764,1110.777710 1809.823608,1104.986328 
	C1818.584717,1093.688232 1827.336304,1082.382690 1836.303589,1070.807007 
	C1849.591064,1087.900146 1862.655396,1104.515869 1875.445190,1121.340210 
	C1877.658081,1124.251221 1879.908936,1125.090088 1883.359619,1125.070068 
	C1906.357666,1124.936157 1929.356812,1125.000610 1952.355591,1125.000610 
	C1953.946289,1125.000610 1955.536987,1125.000610 1958.133301,1125.000610 
	C1930.607178,1091.230103 1903.722656,1058.246826 1876.624146,1025.000977 
	C1899.816528,994.750244 1922.849365,964.707397 1946.503418,933.854431 
	C1934.399170,933.854431 1923.449585,933.854431 1911.500000,933.854614 
M876.500000,862.853455 
	C865.582825,862.853455 854.665588,862.853455 843.223999,862.853455 
	C843.223999,886.841309 843.223999,910.080078 843.223999,933.849731 
	C833.954346,933.849731 825.211060,933.849731 816.241150,933.849731 
	C816.241150,950.777283 816.241150,967.164978 816.241150,984.212524 
	C825.372742,984.212524 834.241821,984.212524 843.330688,984.212524 
	C843.330688,1006.689148 843.058533,1028.511230 843.450256,1050.321289 
	C843.634705,1060.591431 844.173218,1071.021606 846.166992,1081.058350 
	C850.436890,1102.553101 861.325256,1119.439575 883.285339,1126.665771 
	C897.978638,1131.500854 913.039551,1131.431396 928.174194,1128.531128 
	C938.317688,1126.587280 948.054321,1123.701294 956.925171,1118.170410 
	C954.169617,1109.100220 951.543762,1100.348755 948.849243,1091.618652 
	C946.188416,1082.997192 943.458252,1074.397095 940.669250,1065.503174 
	C938.507568,1066.661743 937.079956,1067.497192 935.594360,1068.212036 
	C921.573730,1074.959106 912.065613,1069.892578 910.114197,1054.482666 
	C909.592896,1050.366089 909.555725,1046.171143 909.537903,1042.011108 
	C909.473450,1027.016968 909.512146,1012.022400 909.511963,997.028015 
	C909.511963,992.890320 909.512024,988.752563 909.512024,984.060974 
	C923.011780,984.060974 936.089539,984.060974 949.408813,984.060974 
	C949.408813,967.110291 949.408813,950.718872 949.408813,933.690552 
	C936.047668,933.690552 922.989319,933.690552 909.435547,933.690552 
	C909.435547,909.795593 909.435547,886.531738 909.435547,862.853394 
	C898.447510,862.853394 887.973755,862.853394 876.500000,862.853455 
M1045.415161,1011.500061 
	C1045.415161,985.737366 1045.415161,959.974609 1045.415161,934.092773 
	C1023.104431,934.092773 1001.496582,934.092773 979.572876,934.092773 
	C979.572876,997.722595 979.572876,1061.112915 979.572876,1124.706543 
	C1001.551636,1124.706543 1023.272522,1124.706543 1045.414307,1124.706543 
	C1045.414307,1087.108398 1045.414307,1049.804321 1045.415161,1011.500061 
M1136.500000,1045.652222 
	C1161.549561,1045.652222 1186.599121,1045.652222 1211.646240,1045.652222 
	C1211.646240,1026.144653 1211.646240,1007.547302 1211.646240,988.688232 
	C1171.687744,988.688232 1131.986450,988.688232 1092.273926,988.688232 
	C1092.273926,1007.756653 1092.273926,1026.482544 1092.273926,1045.651611 
	C1106.913574,1045.651611 1121.206787,1045.651611 1136.500000,1045.652222 
M1051.676514,847.070312 
	C1048.584717,834.071167 1040.995361,824.268982 1028.885132,819.094666 
	C1015.712708,813.466553 1002.400269,814.331909 990.573486,823.249268 
	C977.628479,833.009705 971.980713,846.096008 974.938904,862.214111 
	C977.476501,876.041199 985.838196,885.823059 998.662048,890.956177 
	C1012.034607,896.308838 1025.115845,894.844543 1036.815796,885.799805 
	C1049.294556,876.153076 1053.850098,863.313599 1051.676514,847.070312 
z"/>
<path fill="#488AC9" opacity="1.000000" stroke="none" 
	d="
M1502.522217,817.902527 
	C1502.737549,819.956116 1502.958740,822.165466 1502.206665,823.968811 
	C1482.161011,872.026001 1462.018311,920.042725 1441.885986,968.063782 
	C1420.531616,1018.999207 1399.145752,1069.921387 1377.875610,1120.891968 
	C1376.607544,1123.930542 1375.144165,1125.147827 1371.686646,1125.096924 
	C1356.524536,1124.873535 1341.354980,1124.859985 1326.193237,1125.097534 
	C1322.304321,1125.158569 1320.391724,1124.100708 1318.833984,1120.364746 
	C1293.675049,1060.024780 1268.340210,999.758057 1243.046509,939.474243 
	C1226.827515,900.818359 1210.607910,862.162659 1194.403564,823.500549 
	C1193.719116,821.867249 1193.186768,820.170227 1192.349243,817.854736 
	C1194.730347,817.854736 1196.363892,817.854736 1197.997314,817.854736 
	C1220.662109,817.854736 1243.328369,817.978516 1265.990601,817.741394 
	C1270.107544,817.698242 1271.689453,819.156799 1273.080200,822.799500 
	C1297.641846,887.130310 1322.348267,951.405884 1347.029419,1015.691040 
	C1347.383789,1016.613831 1347.814209,1017.507385 1348.555786,1019.210938 
	C1353.551147,1006.218445 1358.291138,993.907776 1363.018311,981.592224 
	C1383.402344,928.484924 1403.813232,875.387939 1424.090576,822.239990 
	C1425.363037,818.904663 1426.977783,817.741455 1430.580566,817.767578 
	C1454.410889,817.940735 1478.243164,817.864319 1502.522217,817.902527 
z"/>
<path fill="#488AC9" opacity="1.000000" stroke="none" 
	d="
M168.450607,1124.521606 
	C144.283478,1118.410278 123.208138,1106.967163 103.568275,1092.594238 
	C101.206375,1090.865723 100.494965,1089.346680 102.249870,1086.455933 
	C113.048340,1068.668335 123.631470,1050.749878 134.300186,1032.883423 
	C134.548691,1032.467285 134.960739,1032.148682 135.620621,1031.433105 
	C137.160843,1032.569580 138.728699,1033.691040 140.259125,1034.861206 
	C157.080856,1047.724609 175.397293,1057.873169 195.889740,1063.349487 
	C211.402786,1067.495117 226.980820,1066.774780 241.551682,1059.239502 
	C256.580139,1051.467651 260.095703,1030.343140 247.521408,1019.062622 
	C239.959808,1012.278992 230.766205,1007.066467 221.722870,1002.240784 
	C208.081177,994.961243 193.744644,988.990784 180.039505,981.821411 
	C160.738922,971.725098 144.300720,958.033264 135.001831,937.956970 
	C120.705292,907.090698 125.074669,877.279175 145.800430,851.179810 
	C170.002457,820.702759 202.925552,809.108032 241.541016,812.652527 
	C262.845856,814.608093 283.058624,820.317017 302.449982,829.017761 
	C308.633759,831.792297 314.346619,835.670349 320.074707,839.354797 
	C321.060730,839.989014 321.861176,842.595825 321.361450,843.605530 
	C312.583313,861.342957 303.589447,878.973694 295.226288,895.475342 
	C281.790497,890.081909 268.932800,884.266968 255.631927,879.759827 
	C241.529037,874.980896 226.914993,873.696167 212.565781,879.213074 
	C203.954514,882.523987 198.251541,888.765503 196.388000,898.048706 
	C194.938873,905.267456 196.312958,912.006958 202.121216,916.655090 
	C208.185349,921.508057 214.630997,926.151855 221.544922,929.621765 
	C237.742645,937.751282 254.425446,944.908508 270.714874,952.862732 
	C287.971130,961.289062 303.068268,972.789490 315.479706,987.451477 
	C329.169128,1003.623169 333.447754,1022.564087 331.163025,1043.473511 
	C328.303192,1069.645996 318.708221,1092.073120 296.774811,1107.849609 
	C282.921753,1117.813965 267.252502,1123.701660 250.558640,1127.005371 
	C223.134506,1132.432617 195.925217,1130.883545 168.450607,1124.521606 
z"/>
<path fill="#488AC9" opacity="1.000000" stroke="none" 
	d="
M1545.962402,935.946289 
	C1587.048950,922.995422 1626.085693,925.288391 1662.606201,949.021179 
	C1717.612549,984.767029 1721.087891,1064.936890 1669.507568,1105.481812 
	C1649.433228,1121.261230 1626.429688,1128.714111 1601.177490,1130.079834 
	C1578.960449,1131.281372 1557.181274,1129.211060 1536.755371,1119.874634 
	C1500.573853,1103.336548 1479.567749,1075.664307 1477.150513,1035.325195 
	C1474.300049,987.754822 1502.181519,953.925964 1541.880493,937.540466 
	C1543.110352,937.032776 1544.351196,936.551514 1545.962402,935.946289 
M1634.743774,1018.031250 
	C1626.624878,985.966736 1591.435791,976.558960 1567.523071,991.230408 
	C1552.011475,1000.747559 1546.082031,1015.556335 1547.037720,1033.425659 
	C1548.165527,1054.512817 1563.266846,1071.091675 1583.904663,1073.798706 
	C1607.263184,1076.862671 1627.520752,1064.847168 1633.866455,1044.050659 
	C1636.392090,1035.773926 1636.570190,1027.339600 1634.743774,1018.031250 
z"/>
<path fill="#488BC9" opacity="1.000000" stroke="none" 
	d="
M727.145630,1011.358154 
	C724.518799,996.624573 717.630249,985.536133 703.037842,981.363892 
	C687.933167,977.045105 675.285889,982.138184 664.630798,993.185242 
	C657.148926,1000.942444 654.105347,1010.237366 654.130127,1020.859863 
	C654.206360,1053.512329 654.157837,1086.165161 654.157776,1118.817871 
	C654.157776,1120.636963 654.157776,1122.456055 654.157776,1124.636475 
	C632.175293,1124.636475 610.473206,1124.636475 588.511230,1124.636475 
	C588.511230,1061.115234 588.511230,997.744751 588.511230,934.113892 
	C610.384277,934.113892 631.956726,934.113892 653.920105,934.113892 
	C653.920105,940.578735 653.920105,946.844360 653.920105,954.187134 
	C655.776245,952.854858 657.001038,952.194824 657.955261,951.258972 
	C683.507446,926.196106 713.264648,923.164917 745.730713,934.525391 
	C764.867981,941.221924 780.896545,951.978210 788.091553,971.786682 
	C791.323425,980.684387 793.328247,990.520752 793.461548,999.965515 
	C794.035217,1040.606689 793.708984,1081.260498 793.700500,1121.909790 
	C793.700317,1122.717163 793.578186,1123.524536 793.486755,1124.657349 
	C771.563660,1124.657349 749.836731,1124.657349 727.171265,1124.657349 
	C727.171265,1087.031738 727.171265,1049.424072 727.145630,1011.358154 
z"/>
<path fill="#488BC9" opacity="1.000000" stroke="none" 
	d="
M421.671753,933.713135 
	C460.279083,923.073120 495.966675,926.981567 527.472839,952.831238 
	C543.498047,965.979309 552.256714,983.621643 555.692017,1003.710144 
	C557.612122,1014.938599 557.858521,1026.453247 558.930725,1038.653931 
	C511.723602,1038.653931 465.837494,1038.653931 419.600403,1038.653931 
	C419.475037,1051.348633 422.926117,1061.497681 433.108765,1068.785400 
	C451.162994,1081.707031 482.668823,1082.238037 501.421875,1062.465332 
	C507.044220,1056.537231 507.274902,1056.753540 514.508728,1060.369751 
	C527.737854,1066.983032 540.965820,1073.598511 554.576843,1080.404297 
	C548.575684,1091.458374 540.505188,1100.202637 531.104736,1107.697021 
	C513.849609,1121.453247 493.583313,1127.454834 472.018311,1129.620483 
	C446.347992,1132.198486 421.821686,1128.646240 399.544739,1114.724976 
	C346.879578,1081.813843 337.872162,1019.554626 366.600159,976.075562 
	C379.917450,955.920288 398.054169,941.431702 421.671753,933.713135 
M487.351624,985.236023 
	C478.025238,970.879272 458.434662,968.482361 443.293182,973.147278 
	C430.513641,977.084473 422.125305,988.093933 421.505280,1001.787415 
	C445.295807,1001.787415 469.076904,1001.787415 494.455353,1001.787415 
	C492.026703,995.982605 489.902130,990.904602 487.351624,985.236023 
z"/>
<path fill="#488AC9" opacity="1.000000" stroke="none" 
	d="
M1912.000000,933.854492 
	C1923.449585,933.854431 1934.399170,933.854431 1946.503418,933.854431 
	C1922.849365,964.707397 1899.816528,994.750244 1876.624146,1025.000977 
	C1903.722656,1058.246826 1930.607178,1091.230103 1958.133301,1125.000610 
	C1955.536987,1125.000610 1953.946289,1125.000610 1952.355591,1125.000610 
	C1929.356812,1125.000610 1906.357666,1124.936157 1883.359619,1125.070068 
	C1879.908936,1125.090088 1877.658081,1124.251221 1875.445190,1121.340210 
	C1862.655396,1104.515869 1849.591064,1087.900146 1836.303589,1070.807007 
	C1827.336304,1082.382690 1818.584717,1093.688232 1809.823608,1104.986328 
	C1805.332764,1110.777710 1800.929321,1116.642578 1796.249146,1122.277344 
	C1795.154663,1123.595215 1793.102783,1124.875732 1791.483032,1124.886230 
	C1766.652100,1125.046387 1741.819702,1124.994385 1716.987671,1124.977173 
	C1716.545410,1124.976929 1716.103149,1124.797607 1714.925659,1124.542725 
	C1742.094604,1091.218872 1768.976929,1058.246704 1796.071655,1025.013794 
	C1772.959961,994.863647 1749.928955,964.818848 1726.395386,934.118408 
	C1728.654419,933.994080 1729.919922,933.864563 1731.185425,933.863892 
	C1753.850952,933.851501 1776.516602,933.908386 1799.181519,933.789551 
	C1802.155762,933.773987 1804.010864,934.651733 1805.787842,937.081848 
	C1814.340576,948.777893 1823.100342,960.322571 1831.791504,971.917358 
	C1833.167358,973.752930 1834.567749,975.570190 1836.329468,977.885681 
	C1844.791138,966.634888 1853.532715,956.307922 1860.747070,945.005981 
	C1866.414307,936.127991 1872.978394,932.471130 1883.525391,933.641357 
	C1892.744629,934.664307 1902.167236,933.854614 1912.000000,933.854492 
z"/>
<path fill="#488BC9" opacity="1.000000" stroke="none" 
	d="
M877.000000,862.853394 
	C887.973755,862.853394 898.447510,862.853394 909.435547,862.853394 
	C909.435547,886.531738 909.435547,909.795593 909.435547,933.690552 
	C922.989319,933.690552 936.047668,933.690552 949.408813,933.690552 
	C949.408813,950.718872 949.408813,967.110291 949.408813,984.060974 
	C936.089539,984.060974 923.011780,984.060974 909.512024,984.060974 
	C909.512024,988.752563 909.511963,992.890320 909.511963,997.028015 
	C909.512146,1012.022400 909.473450,1027.016968 909.537903,1042.011108 
	C909.555725,1046.171143 909.592896,1050.366089 910.114197,1054.482666 
	C912.065613,1069.892578 921.573730,1074.959106 935.594360,1068.212036 
	C937.079956,1067.497192 938.507568,1066.661743 940.669250,1065.503174 
	C943.458252,1074.397095 946.188416,1082.997192 948.849243,1091.618652 
	C951.543762,1100.348755 954.169617,1109.100220 956.925171,1118.170410 
	C948.054321,1123.701294 938.317688,1126.587280 928.174194,1128.531128 
	C913.039551,1131.431396 897.978638,1131.500854 883.285339,1126.665771 
	C861.325256,1119.439575 850.436890,1102.553101 846.166992,1081.058350 
	C844.173218,1071.021606 843.634705,1060.591431 843.450256,1050.321289 
	C843.058533,1028.511230 843.330688,1006.689148 843.330688,984.212524 
	C834.241821,984.212524 825.372742,984.212524 816.241150,984.212524 
	C816.241150,967.164978 816.241150,950.777283 816.241150,933.849731 
	C825.211060,933.849731 833.954346,933.849731 843.223999,933.849731 
	C843.223999,910.080078 843.223999,886.841309 843.223999,862.853455 
	C854.665588,862.853455 865.582825,862.853455 877.000000,862.853394 
z"/>
<path fill="#488BC9" opacity="1.000000" stroke="none" 
	d="
M1045.414795,1012.000122 
	C1045.414307,1049.804321 1045.414307,1087.108398 1045.414307,1124.706543 
	C1023.272522,1124.706543 1001.551636,1124.706543 979.572876,1124.706543 
	C979.572876,1061.112915 979.572876,997.722595 979.572876,934.092773 
	C1001.496582,934.092773 1023.104431,934.092773 1045.415161,934.092773 
	C1045.415161,959.974609 1045.415161,985.737366 1045.414795,1012.000122 
z"/>
<path fill="#4A8CCA" opacity="1.000000" stroke="none" 
	d="
M1136.000000,1045.651855 
	C1121.206787,1045.651611 1106.913574,1045.651611 1092.273926,1045.651611 
	C1092.273926,1026.482544 1092.273926,1007.756653 1092.273926,988.688232 
	C1131.986450,988.688232 1171.687744,988.688232 1211.646240,988.688232 
	C1211.646240,1007.547302 1211.646240,1026.144653 1211.646240,1045.652222 
	C1186.599121,1045.652222 1161.549561,1045.652222 1136.000000,1045.651855 
z"/>
<path fill="#488BC9" opacity="1.000000" stroke="none" 
	d="
M1051.747681,847.482727 
	C1053.850098,863.313599 1049.294556,876.153076 1036.815796,885.799805 
	C1025.115845,894.844543 1012.034607,896.308838 998.662048,890.956177 
	C985.838196,885.823059 977.476501,876.041199 974.938904,862.214111 
	C971.980713,846.096008 977.628479,833.009705 990.573486,823.249268 
	C1002.400269,814.331909 1015.712708,813.466553 1028.885132,819.094666 
	C1040.995361,824.268982 1048.584717,834.071167 1051.747681,847.482727 
z"/>
<path fill="#FEFEFF" opacity="1.000000" stroke="none" 
	d="
M1634.825195,1018.445312 
	C1636.570190,1027.339600 1636.392090,1035.773926 1633.866455,1044.050659 
	C1627.520752,1064.847168 1607.263184,1076.862671 1583.904663,1073.798706 
	C1563.266846,1071.091675 1548.165527,1054.512817 1547.037720,1033.425659 
	C1546.082031,1015.556335 1552.011475,1000.747559 1567.523071,991.230408 
	C1591.435791,976.558960 1626.624878,985.966736 1634.825195,1018.445312 
z"/>
<path fill="#FEFEFF" opacity="1.000000" stroke="none" 
	d="
M487.564606,985.531311 
	C489.902130,990.904602 492.026703,995.982605 494.455353,1001.787415 
	C469.076904,1001.787415 445.295807,1001.787415 421.505280,1001.787415 
	C422.125305,988.093933 430.513641,977.084473 443.293182,973.147278 
	C458.434662,968.482361 478.025238,970.879272 487.564606,985.531311 
z"/>
</svg>