<?xml version="1.0" encoding="UTF-8"?>
<svg version="1.1" xmlns="http://www.w3.org/2000/svg" width="2044" height="2044">
<path d="M0 0 C2.99158352 0.00543364 5.98315914 0.00780541 8.9747467 0.00987244 C36.53246556 0.03955492 63.95207453 0.32824813 91.39503479 3.0900116 C93.7635115 3.32426137 96.13300806 3.54225943 98.50343323 3.75584412 C184.83366864 11.56236803 270.18764622 30.79665487 505.08009338 130.80125427 C507.87867597 132.42206306 510.69724982 134.00266697 513.52296448 135.57566833 C524.93734558 141.93254565 536.10576461 148.55016679 547.08204651 155.63572693 C550.02765815 157.52929515 552.98557267 159.40273452 555.94483948 161.27488708 C566.49807791 167.96416932 576.94560831 174.69562004 587.0146637 182.09617615 C588.85354638 183.43015251 590.71250021 184.73181234 592.57765198 186.02879333 C603.40648314 193.56289502 613.91409186 201.4773577 624.3662262 209.5243988 C626.35920146 211.05678275 628.3569502 212.5823915 630.35890198 214.10301208 C642.90886771 223.66711236 655.09094618 233.68895585 667.08351135 243.94090271 C668.74709116 245.35906929 670.41770449 246.768609 672.08937073 248.17723083 C679.07803725 254.08829768 685.85397437 260.18130344 692.5146637 266.45994568 C695.5231626 269.29504407 698.5389086 272.08796086 701.69874573 274.75535583 C706.46333905 278.84078563 710.7928486 283.3861802 715.20387268 287.84446716 C718.340089 291.00265072 721.46571478 294.08882792 724.88624573 296.94285583 C728.91145988 300.34346779 732.38141264 304.23344141 735.91505432 308.12767029 C739.66821385 312.24861356 743.54511975 316.21460063 747.51124573 320.13035583 C751.46843066 324.04608619 755.29694985 327.99234881 758.90187073 332.23973083 C760.76889049 334.39897977 762.69822479 336.49382271 764.64015198 338.5856781 C769.47781581 343.79819497 774.06670633 349.13756395 778.52687073 354.68113708 C780.63630922 357.24205612 782.82762221 359.68909038 785.07374573 362.13035583 C789.05558159 366.5048641 792.71616656 371.06314658 796.33766174 375.73435974 C799.29920056 379.55100152 802.31834402 383.30997301 805.39112854 387.0375824 C812.58666584 395.77718918 819.34468902 404.7955707 825.98878479 413.9594574 C827.62434113 416.21523613 829.26634326 418.46618168 830.90968323 420.71629333 C842.94283427 437.23565849 854.82255834 453.86968814 865.46827698 471.32371521 C866.78392997 473.45590839 868.12807173 475.56785901 869.47999573 477.67723083 C886.77481078 504.67520809 902.05865891 532.810592 916.69874573 561.31785583 C917.24256897 562.3715033 917.78639221 563.42515076 918.34669495 564.51072693 C957.06023073 639.73676919 985.17103489 721.20165298 1006.69874573 821.31785583 C1006.85903259 822.10833313 1007.01931946 822.89881042 1007.1844635 823.71324158 C1013.91053801 857.04139581 1018.59182825 890.67719894 1021.94874573 924.50535583 C1022.06444412 925.65314011 1022.06444412 925.65314011 1022.18247986 926.82411194 C1022.76183566 932.64994851 1023.24920881 938.48064981 1023.69874573 944.31785583 C1023.82955032 945.98651703 1023.82955032 945.98651703 1023.96299744 947.68888855 C1025.75850061 971.33076638 1026.06137473 994.91649351 1026.01660156 1018.61911011 C1026.01116792 1021.61069362 1026.00879615 1024.60226924 1026.00672913 1027.59385681 C1025.97704664 1055.15157567 1025.68835343 1082.57118464 1022.92658997 1110.0141449 C1022.69234019 1112.38262161 1022.47434213 1114.75211817 1022.26075745 1117.12254333 C1014.45423353 1203.45277875 995.21994669 1288.80675633 895.21534729 1523.69920349 C893.5945385 1526.49778608 892.01393459 1529.31635992 890.44093323 1532.14207458 C884.08405591 1543.55645569 877.46643477 1554.72487472 870.38087463 1565.70115662 C868.48730641 1568.64676826 866.61386704 1571.60468277 864.74171448 1574.56394958 C858.05243225 1585.11718802 851.32098152 1595.56471842 843.92042542 1605.6337738 C842.58644905 1607.47265649 841.28478922 1609.33161031 839.98780823 1611.19676208 C832.45370655 1622.02559325 824.53924387 1632.53320196 816.49220276 1642.9853363 C814.95981881 1644.97831156 813.43421006 1646.97606031 811.91358948 1648.97801208 C802.3494892 1661.52797782 792.32764571 1673.71005628 782.07569885 1685.70262146 C780.65753227 1687.36620127 779.24799256 1689.0368146 777.83937073 1690.70848083 C771.92830389 1697.69714735 765.83529812 1704.47308448 759.55665588 1711.1337738 C756.72155749 1714.14227271 753.9286407 1717.15801871 751.26124573 1720.31785583 C747.17581593 1725.08244915 742.63042137 1729.41195871 738.1721344 1733.82298279 C735.01395084 1736.9591991 731.92777364 1740.08482489 729.07374573 1743.50535583 C725.67313377 1747.53056999 721.78316015 1751.00052275 717.88893127 1754.53416443 C713.767988 1758.28732396 709.80200093 1762.16422986 705.88624573 1766.13035583 C701.97051537 1770.08754077 698.02425275 1773.91605995 693.77687073 1777.52098083 C691.61762179 1779.38800059 689.52277885 1781.3173349 687.43092346 1783.25926208 C682.21840659 1788.09692591 676.87903761 1792.68581643 671.33546448 1797.14598083 C668.77454544 1799.25541933 666.32751118 1801.44673232 663.88624573 1803.69285583 C659.51173747 1807.6746917 654.95345498 1811.33527667 650.28224182 1814.95677185 C646.46560005 1817.91831067 642.70662856 1820.93745413 638.97901917 1824.01023865 C630.23941238 1831.20577595 621.22103086 1837.96379912 612.05714417 1844.6078949 C609.80136544 1846.24345123 607.55041988 1847.88545336 605.30030823 1849.52879333 C588.78094307 1861.56194438 572.14691342 1873.44166845 554.69288635 1884.08738708 C552.56069318 1885.40304007 550.44874255 1886.74718184 548.33937073 1888.09910583 C521.34139347 1905.39392089 493.20600956 1920.67776902 464.69874573 1935.31785583 C463.11827454 1936.1335907 463.11827454 1936.1335907 461.50587463 1936.96580505 C386.27983237 1975.67934084 304.81494858 2003.79014499 204.69874573 2025.31785583 C203.90826843 2025.4781427 203.11779114 2025.63842957 202.30335999 2025.80357361 C168.97520575 2032.52964812 135.33940262 2037.21093836 101.51124573 2040.56785583 C100.36346146 2040.68355423 100.36346146 2040.68355423 99.19248962 2040.80158997 C93.36665306 2041.38094577 87.53595175 2041.86831892 81.69874573 2042.31785583 C80.03008453 2042.44866043 80.03008453 2042.44866043 78.32771301 2042.58210754 C54.68583519 2044.37761072 31.10010805 2044.68048484 7.39749146 2044.63571167 C4.40590794 2044.63027803 1.41433232 2044.62790626 -1.57725525 2044.62583923 C-29.13497411 2044.59615675 -56.55458308 2044.30746354 -83.99754333 2041.54570007 C-86.36602005 2041.3114503 -88.7355166 2041.09345224 -91.10594177 2040.87986755 C-177.43617719 2033.07334364 -262.79015477 2013.8390568 -497.68260193 1913.8344574 C-500.48118452 1912.21364861 -503.29975836 1910.6330447 -506.12547302 1909.06004333 C-517.53985413 1902.70316602 -528.70827315 1896.08554488 -539.68455505 1888.99998474 C-542.6301667 1887.10641652 -545.58808121 1885.23297715 -548.54734802 1883.36082458 C-559.10058645 1876.67154235 -569.54811686 1869.94009163 -579.61717224 1862.53953552 C-581.45605493 1861.20555916 -583.31500875 1859.90389933 -585.18016052 1858.60691833 C-596.00899168 1851.07281665 -606.5166004 1843.15835397 -616.96873474 1835.11131287 C-618.96171 1833.57892892 -620.95945875 1832.05332017 -622.96141052 1830.53269958 C-635.51137626 1820.96859931 -647.69345472 1810.94675582 -659.6860199 1800.69480896 C-661.3495997 1799.27664238 -663.02021304 1797.86710267 -664.69187927 1796.45848083 C-671.68054579 1790.54741399 -678.45648292 1784.45440823 -685.11717224 1778.17576599 C-688.12567115 1775.3406676 -691.14141715 1772.54775081 -694.30125427 1769.88035583 C-699.06584759 1765.79492604 -703.39535715 1761.24953147 -707.80638123 1756.79124451 C-710.94259754 1753.63306095 -714.06822333 1750.54688375 -717.48875427 1747.69285583 C-721.51396843 1744.29224388 -724.98392119 1740.40227026 -728.51756287 1736.50804138 C-732.2707224 1732.38709811 -736.1476283 1728.42111104 -740.11375427 1724.50535583 C-744.07093921 1720.58962548 -747.89945839 1716.64336286 -751.50437927 1712.39598083 C-753.37139903 1710.2367319 -755.30073334 1708.14188896 -757.24266052 1706.05003357 C-762.08032435 1700.8375167 -766.66921487 1695.49814772 -771.12937927 1689.95457458 C-773.23881776 1687.39365555 -775.43013076 1684.94662129 -777.67625427 1682.50535583 C-781.65809014 1678.13084757 -785.3186751 1673.57256509 -788.94017029 1668.90135193 C-791.90170911 1665.08471015 -794.92085256 1661.32573866 -797.99363708 1657.59812927 C-805.18917438 1648.85852249 -811.94719756 1639.84014097 -818.59129333 1630.67625427 C-820.22684967 1628.42047554 -821.8688518 1626.16952999 -823.51219177 1623.91941833 C-835.54534282 1607.40005318 -847.42506688 1590.76602353 -858.07078552 1573.31199646 C-859.38643851 1571.17980328 -860.73058027 1569.06785266 -862.08250427 1566.95848083 C-879.37731932 1539.96050358 -894.66116745 1511.82511967 -909.30125427 1483.31785583 C-910.11698914 1481.73738464 -910.11698914 1481.73738464 -910.94920349 1480.12498474 C-949.66273927 1404.89894248 -977.77354343 1323.43405869 -999.30125427 1223.31785583 C-999.46154114 1222.52737854 -999.621828 1221.73690125 -999.78697205 1220.92247009 C-1006.51304655 1187.59431586 -1011.1943368 1153.95851273 -1014.55125427 1120.13035583 C-1014.62838654 1119.36516632 -1014.7055188 1118.59997681 -1014.7849884 1117.81159973 C-1015.36434421 1111.98576316 -1015.85171735 1106.15506186 -1016.30125427 1100.31785583 C-1016.43205887 1098.64919464 -1016.43205887 1098.64919464 -1016.56550598 1096.94682312 C-1018.36100916 1073.30494529 -1018.66388327 1049.71921816 -1018.61911011 1026.01660156 C-1018.61367647 1023.02501805 -1018.6113047 1020.03344243 -1018.60923767 1017.04185486 C-1018.57955519 989.484136 -1018.29086197 962.06452703 -1015.52909851 934.62156677 C-1015.29484873 932.25309006 -1015.07685068 929.8835935 -1014.86326599 927.51316833 C-1007.05674208 841.18293292 -987.82245524 755.82895534 -887.81785583 520.93650818 C-886.19704705 518.13792559 -884.61644314 515.31935175 -883.04344177 512.49363708 C-876.68656445 501.07925598 -870.06894332 489.91083695 -862.98338318 478.93455505 C-861.08981496 475.98894341 -859.21637559 473.0310289 -857.34422302 470.07176208 C-850.65494079 459.51852365 -843.92349007 449.07099325 -836.52293396 439.00193787 C-835.1889576 437.16305518 -833.88729777 435.30410136 -832.59031677 433.43894958 C-825.05621509 422.61011842 -817.14175241 412.10250971 -809.0947113 401.65037537 C-807.56232735 399.65740011 -806.03671861 397.65965136 -804.51609802 395.65769958 C-794.95199774 383.10773385 -784.93015426 370.92565539 -774.6782074 358.93309021 C-773.26004081 357.2695104 -771.85050111 355.59889707 -770.44187927 353.92723083 C-764.53081243 346.93856432 -758.43780667 340.16262719 -752.15916443 333.50193787 C-749.32406604 330.49343896 -746.53114925 327.47769296 -743.86375427 324.31785583 C-739.77832447 319.55326252 -735.23292991 315.22375296 -730.77464294 310.81272888 C-727.61645939 307.67651257 -724.53028219 304.55088678 -721.67625427 301.13035583 C-718.27564232 297.10514168 -714.3856687 293.63518892 -710.49143982 290.10154724 C-706.37049655 286.34838771 -702.40450948 282.47148181 -698.48875427 278.50535583 C-694.57302392 274.5481709 -690.6267613 270.71965172 -686.37937927 267.11473083 C-684.22013033 265.24771108 -682.12528739 263.31837677 -680.03343201 261.37644958 C-674.82091514 256.53878576 -669.48154615 251.94989524 -663.93797302 247.48973083 C-661.37705399 245.38029234 -658.93001973 243.18897935 -656.48875427 240.94285583 C-652.11424601 236.96101997 -647.55596353 233.300435 -642.88475037 229.67893982 C-639.06810859 226.717401 -635.3091371 223.69825754 -631.58152771 220.62547302 C-622.84192092 213.42993572 -613.82353941 206.67191255 -604.65965271 200.02781677 C-602.40387398 198.39226044 -600.15292842 196.75025831 -597.90281677 195.10691833 C-581.38345162 183.07376729 -564.74942197 171.19404322 -547.2953949 160.54832458 C-545.16320172 159.2326716 -543.0512511 157.88852983 -540.94187927 156.53660583 C-513.94390202 139.24179078 -485.80851811 123.95794265 -457.30125427 109.31785583 C-456.24760681 108.77403259 -455.19395935 108.23020935 -454.10838318 107.66990662 C-378.88234092 68.95637083 -297.41745712 40.84556668 -197.30125427 19.31785583 C-196.51077698 19.15756897 -195.72029968 18.9972821 -194.90586853 18.83213806 C-161.5777143 12.10606355 -127.94191117 7.42477331 -94.11375427 4.06785583 C-92.96597 3.95215744 -92.96597 3.95215744 -91.79499817 3.8341217 C-85.9691616 3.2547659 -80.13846029 2.76739275 -74.30125427 2.31785583 C-72.63259308 2.18705124 -72.63259308 2.18705124 -70.93022156 2.05360413 C-47.28834373 0.25810095 -23.7026166 -0.04477317 0 0 Z " fill="#FEFEFE" transform="translate(1018.3012542724609,-0.3178558349609375)"/>
<path d="M0 0 C26.07 0 52.14 0 79 0 C83.50042684 10.1259604 83.50042684 10.1259604 84.91259766 13.77392578 C85.2353215 14.60446976 85.55804535 15.43501373 85.89054871 16.29072571 C86.22830826 17.16673935 86.56606781 18.04275299 86.9140625 18.9453125 C87.28086624 19.89153976 87.64766998 20.83776703 88.02558899 21.81266785 C89.22771258 24.91588631 90.42645803 28.02039665 91.625 31.125 C92.47589696 33.32449998 93.32689146 35.52396224 94.17797852 37.72338867 C100.53808441 54.17030363 106.85482037 70.63377154 113.15234375 87.10473633 C118.3672727 100.74389627 123.60344909 114.37474878 128.85025024 128.00167847 C137.95438699 151.64723859 147.00054429 175.3144096 156 199 C157.67311354 196.49032968 158.6691003 194.53001392 159.72973633 191.75878906 C160.22974403 190.46043373 160.22974403 190.46043373 160.73985291 189.135849 C161.28048119 187.71508812 161.28048119 187.71508812 161.83203125 186.265625 C162.21561295 185.26628433 162.59919464 184.26694366 162.99440002 183.23731995 C164.27064344 179.90955905 165.54156005 176.57978963 166.8125 173.25 C167.71339867 170.89791347 168.61460847 168.54594608 169.51611328 166.1940918 C172.34953277 158.79814089 175.17563778 151.39941303 178 144 C178.44160461 142.84316711 178.88320923 141.68633423 179.3381958 140.4944458 C182.78449289 131.46576229 186.23007467 122.43680509 189.67370605 113.40710449 C198.83251072 89.39317588 208.07857312 65.41347331 217.35020447 41.44291687 C219.91203876 34.8186725 222.46691455 28.19180351 225.015625 21.5625 C225.85863759 19.37279199 226.70191903 17.18318782 227.54537964 14.99365234 C228.05014404 13.68183118 228.55401405 12.36966546 229.05691528 11.05712891 C229.7191882 9.32885061 230.38485653 7.6018745 231.05078125 5.875 C231.40825439 4.94429687 231.76572754 4.01359375 232.1340332 3.0546875 C233 1 233 1 234 0 C236.43396019 -0.09498646 238.83942952 -0.12558417 241.27368164 -0.11352539 C242.03460617 -0.11367142 242.7955307 -0.11381744 243.57951355 -0.1139679 C246.10642298 -0.11326862 248.63325962 -0.10547555 251.16015625 -0.09765625 C252.9075059 -0.09579212 254.65485607 -0.0943682 256.40220642 -0.09336853 C261.01031934 -0.08954293 265.61840095 -0.07971229 270.22650146 -0.06866455 C274.92508521 -0.05845134 279.62367399 -0.0538711 284.32226562 -0.04882812 C293.54819087 -0.03809005 302.77409284 -0.02101313 312 0 C311.21778644 4.237325 309.92956621 7.87064247 308.25390625 11.8515625 C307.97173248 12.52565659 307.68955872 13.19975067 307.39883423 13.89427185 C306.45771127 16.13968937 305.51006951 18.38229619 304.5625 20.625 C303.88862564 22.2295461 303.21521494 23.83428699 302.54223633 25.43920898 C301.10694995 28.86034475 299.66913742 32.2804033 298.22949219 35.69970703 C296.02337362 40.94132021 293.82678055 46.18688497 291.6328125 51.43359375 C290.8964878 53.19433737 290.16015966 54.95507955 289.42382812 56.71582031 C289.05636475 57.59451782 288.68890137 58.47321533 288.31030273 59.37854004 C286.40893855 63.92358181 284.50514998 68.46760782 282.6015625 73.01171875 C279.57274607 80.24233136 276.54684379 87.47415487 273.5234375 94.70703125 C265.5328246 113.81945763 257.50714253 132.91643799 249.43728638 151.99554443 C242.81832228 167.64869489 236.26825164 183.3297902 229.74331665 199.02233887 C223.26200869 214.60746755 216.72103149 230.16637968 210.13873291 245.70910645 C205.74375094 256.08887692 201.37445997 266.47833751 197.06640625 276.89453125 C196.66861465 277.85620712 196.27082306 278.817883 195.86097717 279.80870056 C193.95800112 284.41224785 192.0591489 289.01745344 190.1652832 293.62475586 C189.49302141 295.25505386 188.82074062 296.88534404 188.1484375 298.515625 C187.68897484 299.63859734 187.68897484 299.63859734 187.2202301 300.78425598 C185.11297691 305.88702309 185.11297691 305.88702309 184 307 C182.28134591 307.0935919 180.55884256 307.11744611 178.83764648 307.11352539 C177.73658066 307.11344986 176.63551483 307.11337433 175.50108337 307.11329651 C174.3031868 307.10813522 173.10529022 307.10297394 171.87109375 307.09765625 C170.65172623 307.0962413 169.4323587 307.09482635 168.17604065 307.09336853 C164.2631693 307.08774967 160.35035419 307.07519396 156.4375 307.0625 C153.79231853 307.05748743 151.14713617 307.0529241 148.50195312 307.04882812 C142.00128274 307.03777411 135.50064539 307.02101764 129 307 C124.65305689 297.84039806 120.5106807 288.64342822 116.6875 279.25 C115.64150448 276.70275877 114.59469337 274.15586572 113.546875 271.609375 C113.26851303 270.93205322 112.99015106 270.25473145 112.70335388 269.55688477 C108.98687828 260.52175587 105.21134541 251.51127877 101.4375 242.5 C101.0575589 241.59240936 100.6776178 240.68481873 100.28616333 239.74972534 C94.03597141 224.82225608 87.74305817 209.91305653 81.43893433 195.00830078 C74.81912241 179.35317743 68.26881851 163.6698644 61.74230957 147.97564697 C55.2745286 132.42552367 48.75199941 116.89940459 42.19100952 101.38839722 C35.62361412 85.86165043 29.09834598 70.31772451 22.59765625 54.76293945 C18.85138838 45.80079079 15.09481593 36.84318314 11.31640625 27.89453125 C10.75120018 26.55531364 10.75120018 26.55531364 10.17457581 25.18904114 C8.37624663 20.92851875 6.57602556 16.66881252 4.77270508 12.41040039 C4.13746473 10.90644141 3.50228839 9.40245538 2.8671875 7.8984375 C2.57441422 7.20905594 2.28164093 6.51967438 1.97999573 5.80940247 C0 1.11348574 0 1.11348574 0 0 Z " fill="#478AC9" transform="translate(1188,817)"/>
<path d="M0 0 C1.31758899 0.23634337 2.63530559 0.47197607 3.953125 0.70703125 C26.25199047 4.9400276 48.76729908 13.37797562 67 27 C57.66666667 45.66666667 48.33333333 64.33333333 39 83 C35.64820123 81.69853486 32.80550504 80.30238495 29.8125 78.3125 C13.72036862 68.56689606 -6.34901554 62.61897322 -25.125 62.5 C-25.96522705 62.49363525 -26.8054541 62.48727051 -27.67114258 62.48071289 C-37.3755472 62.67994048 -45.89915716 65.19897053 -53 72 C-57.98707872 77.84306984 -59.38493507 82.59994553 -59.265625 90.15625 C-58.54564825 97.86423639 -54.24059291 102.06955933 -48.60620117 106.97338867 C-44.3390874 110.29154431 -39.70337375 112.66668655 -34.875 115.0625 C-33.85946045 115.57852783 -32.8439209 116.09455566 -31.79760742 116.6262207 C-22.40646895 121.37062833 -12.91259499 125.85342179 -3.2734375 130.0703125 C18.00518369 139.41838455 35.96848856 150.0272859 53 166 C53.61230469 166.53625 54.22460938 167.0725 54.85546875 167.625 C64.23030546 176.20608623 70.21577239 188.04311275 74 200 C74.24492187 200.7425 74.48984375 201.485 74.7421875 202.25 C80.59570736 223.41889373 74.05866463 250.71407443 63.625 269.4375 C49.04365325 292.8124221 25.54880174 306.21730005 -0.81958008 312.69238281 C-49.79917208 322.84189142 -100.02360705 313.72454183 -141.97363281 286.72998047 C-145.08510794 284.61301257 -148.06406935 282.35214521 -151 280 C-152.33058484 278.9963458 -153.66304571 277.99515376 -155 277 C-154.41942598 273.08079721 -153.25045676 270.35934403 -151.18359375 266.9921875 C-150.5915918 266.01781738 -149.99958984 265.04344727 -149.38964844 264.03955078 C-148.42333496 262.47309814 -148.42333496 262.47309814 -147.4375 260.875 C-146.42597933 259.21568197 -145.41448903 257.55634478 -144.4045105 255.89608765 C-143.69905238 254.73659154 -142.99275949 253.57760296 -142.28567505 252.4190979 C-139.6663143 248.12083543 -137.09739003 243.79483246 -134.55078125 239.453125 C-134.18911362 238.83748688 -133.82744598 238.22184875 -133.45481873 237.58755493 C-132.03691476 235.1732423 -130.61939618 232.75874895 -129.20944214 230.33978271 C-128.23223714 228.66424718 -127.24905333 226.99220295 -126.265625 225.3203125 C-125.42692871 223.88582764 -125.42692871 223.88582764 -124.57128906 222.42236328 C-123.19540093 220.30123804 -121.86915741 218.68393194 -120 217 C-119.2471875 217.61746094 -118.494375 218.23492188 -117.71875 218.87109375 C-109.31129612 225.62878817 -100.53934072 230.9959784 -91 236 C-90.32501465 236.35868164 -89.6500293 236.71736328 -88.95458984 237.08691406 C-68.49818024 247.90610361 -48.14462534 254.2886423 -25 249 C-15.85968163 246.02206036 -8.92291387 242.84903124 -4.125 234.25 C-1.84055932 229.29180881 -1.31826088 225.37816416 -2 220 C-2.0721875 219.2471875 -2.144375 218.494375 -2.21875 217.71875 C-3.34120675 210.26971886 -7.43293661 205.92328399 -13.12109375 201.26171875 C-24.75433613 192.72805866 -37.75309258 186.54970928 -50.8125 180.5625 C-83.47967089 165.57508023 -83.47967089 165.57508023 -96 155 C-96.50080078 154.58137695 -97.00160156 154.16275391 -97.51757812 153.73144531 C-113.860747 139.93486533 -127.15685681 120.48877073 -129.21875 98.68701172 C-130.67742044 75.89984438 -124.67451645 53.70872098 -110 36 C-109.00226563 34.75863281 -109.00226563 34.75863281 -107.984375 33.4921875 C-92.14273045 14.77557783 -68.0017114 1.06872492 -43.52978516 -1.79345703 C-29.14175254 -2.96816033 -14.16870359 -2.93204034 0 0 Z " fill="#478AC9" transform="translate(252,813)"/>
<path d="M0 0 C2.30154216 -0.00217606 4.6025956 -0.02035549 6.90405273 -0.03930664 C40.28977697 -0.16759078 68.84385035 12.48232038 92.67553711 35.65405273 C111.2394168 55.30242025 118.1964216 80.08532447 117.45288086 106.47045898 C116.20154735 133.63650575 103.47021278 156.49848512 83.73071289 174.77758789 C69.34458309 187.48056253 51.56811871 194.69568435 33.13647461 199.18530273 C32.34096191 199.3825293 31.54544922 199.57975586 30.72583008 199.78295898 C22.62929465 201.52887601 14.56451238 201.48915336 6.32250977 201.44604492 C3.90477052 201.43538341 1.48778425 201.44596109 -0.92993164 201.45874023 C-14.48383181 201.47354283 -27.53510479 200.55326938 -40.42602539 195.99780273 C-41.31660645 195.69028076 -42.2071875 195.38275879 -43.12475586 195.06591797 C-67.75095965 186.33311119 -89.76226319 169.75993146 -101.86352539 146.18530273 C-104.12359297 141.28644693 -106.03794199 136.2608897 -107.86352539 131.18530273 C-108.22446289 130.19401367 -108.58540039 129.20272461 -108.95727539 128.18139648 C-116.2633006 104.02742522 -112.74353954 76.72459463 -101.35180664 54.60717773 C-87.67789465 29.51051374 -62.76111936 12.43013632 -35.86352539 4.18530273 C-23.87412302 0.71621416 -12.40115079 -0.001308 0 0 Z " fill="#478AC9" transform="translate(1584.863525390625,927.814697265625)"/>
<path d="M0 0 C1.03833984 0.79277344 1.03833984 0.79277344 2.09765625 1.6015625 C20.78532544 16.68544658 29.11370152 39.90961216 32 63 C32 70.92 32 78.84 32 87 C-13.87 87 -59.74 87 -107 87 C-103.99439309 104.65390071 -103.99439309 104.65390071 -92.70703125 117.65234375 C-80.05796181 125.67322654 -65.90485806 127.83404908 -51.14453125 125.3515625 C-38.86589366 122.42271317 -30.30431681 117.14263236 -22.0703125 107.625 C-20 106 -20 106 -17.64605713 106.27482605 C-15.10981008 106.96990564 -12.95039672 107.82224419 -10.59277344 108.9777832 C-9.7555072 109.3852327 -8.91824097 109.79268219 -8.05560303 110.21247864 C-7.16584778 110.6541185 -6.27609253 111.09575836 -5.359375 111.55078125 C-4.43658752 112.00599655 -3.51380005 112.46121185 -2.56304932 112.93022156 C-0.61822465 113.89286675 1.32496062 114.85883019 3.26660156 115.82788086 C6.24629014 117.31065387 9.23597932 118.77177309 12.2265625 120.23242188 C14.11523562 121.17056295 16.0032791 122.10997293 17.890625 123.05078125 C18.78847717 123.48634842 19.68632935 123.92191559 20.61138916 124.37068176 C21.43604675 124.78758774 22.26070435 125.20449371 23.11035156 125.6340332 C23.83917542 125.9951973 24.56799927 126.35636139 25.31890869 126.72846985 C27 128 27 128 27.84954834 129.96989441 C28.10270678 133.38586444 25.8025869 135.54424714 23.75 138.0625 C23.29326904 138.63395752 22.83653809 139.20541504 22.3659668 139.79418945 C5.78980426 160.16758438 -14.474057 171.43629501 -40 177 C-41.02222656 177.22558594 -42.04445313 177.45117188 -43.09765625 177.68359375 C-73.20131043 183.09255268 -104.30867554 178.72923453 -130 162 C-133.46407786 159.47203097 -136.74922848 156.79472804 -140 154 C-140.63421875 153.48695313 -141.2684375 152.97390625 -141.921875 152.4453125 C-159.01943009 138.44952625 -171.63318505 116.14132069 -174.64453125 94.23828125 C-177.56781393 64.21639359 -171.87277835 39.09268774 -152.8359375 15.38671875 C-136.08506336 -4.82585549 -111.44287306 -19.38616056 -85.19921875 -22.79296875 C-54.40302446 -24.78588486 -24.51472365 -19.7244903 0 0 Z " fill="#478AC9" transform="translate(522,950)"/>
<path d="M0 0 C13.46885992 11.1500452 21.22820687 26.82404455 23.05036736 44.08842278 C23.44269696 49.31910809 23.37933003 54.55456021 23.36352539 59.79711914 C23.36367142 61.07615112 23.36381744 62.35518311 23.3639679 63.67297363 C23.36425292 67.15374896 23.3584041 70.6344893 23.35139394 74.11525655 C23.34511108 77.76274386 23.34455272 81.41023211 23.34336853 85.057724 C23.34026969 91.95292078 23.33207593 98.84810156 23.32201904 105.74329132 C23.30871437 115.0691356 23.3033463 124.3949843 23.29751682 133.72083569 C23.28813497 148.39723575 23.26820642 163.07360208 23.25 177.75 C1.47 177.75 -20.31 177.75 -42.75 177.75 C-42.78867187 165.48908203 -42.78867187 165.48908203 -42.828125 152.98046875 C-42.85650781 147.12905228 -42.88737687 141.2776901 -42.9218235 135.42631054 C-42.96606405 127.85525136 -43.00452771 120.28431078 -43.02099609 112.71313477 C-43.03545919 106.07346456 -43.07067036 99.43410916 -43.11830902 92.79458046 C-43.13309995 90.26660528 -43.14103969 87.73858006 -43.14188385 85.21056175 C-43.14426202 81.65847159 -43.17141242 78.10734325 -43.20410156 74.55541992 C-43.1990712 73.51963303 -43.19404083 72.48384613 -43.18885803 71.41667175 C-43.34016576 60.72885914 -46.77408761 50.94515372 -53.75 42.75 C-61.60981451 35.24875367 -68.85691495 33.31007022 -79.69018555 33.39086914 C-91.02940567 33.70262269 -98.85252528 38.82837398 -106.75 46.75 C-114.33841756 56.3239175 -116.04358504 65.02821695 -116.06884766 76.93945312 C-116.07889328 78.03302124 -116.0889389 79.12658936 -116.09928894 80.2532959 C-116.13002912 83.84594222 -116.14713076 87.43851432 -116.1640625 91.03125 C-116.18278149 93.53089024 -116.20235545 96.03052422 -116.2227478 98.53015137 C-116.26876731 104.4230719 -116.30620312 110.31599741 -116.33942068 116.20900297 C-116.38824651 124.76174878 -116.45457196 133.31436232 -116.51873779 141.86700439 C-116.60686273 153.827962 -116.67669004 165.78890109 -116.75 177.75 C-138.53 177.75 -160.31 177.75 -182.75 177.75 C-182.75 114.72 -182.75 51.69 -182.75 -13.25 C-160.97 -13.25 -139.19 -13.25 -116.75 -13.25 C-116.75 -6.65 -116.75 -0.05 -116.75 6.75 C-115.656875 5.76 -114.56375 4.77 -113.4375 3.75 C-79.85908013 -25.37473765 -36.21445812 -26.1167951 0 0 Z " fill="#488AC9" transform="translate(766.75,946.25)"/>
<path d="M0 0 C9.79589995 -0.44271284 19.58937961 -0.77900094 29.39328957 -0.98443127 C33.94778213 -1.08310896 38.49537835 -1.2165211 43.04589844 -1.43334961 C72.29897181 -2.79069736 72.29897181 -2.79069736 79.93261719 1.74090576 C84.53465819 5.99757806 87.31063784 10.98807726 89.87786865 16.65145874 C91.45913382 19.96093449 93.48293594 22.50047372 95.796875 25.34375 C96.46460938 26.21644531 97.13234375 27.08914063 97.8203125 27.98828125 C98.45710938 28.81714844 99.09390625 29.64601563 99.75 30.5 C101.09976997 32.25979443 102.44876606 34.02018279 103.796875 35.78125 C104.36760742 36.52439453 104.93833984 37.26753906 105.52636719 38.03320312 C106.7377877 39.65003607 107.87932871 41.31899306 109 43 C115.21073894 35.6884158 120.95639106 28.09682998 126.59814453 20.3425293 C127.71143199 18.81536047 128.8407313 17.29972796 129.9861908 15.79653931 C132.08139516 12.98016393 132.08139516 12.98016393 133.92454529 9.70878601 C139.21278949 1.08549976 139.21278949 1.08549976 143.86295128 -0.72554016 C149.13701369 -1.82168949 154.4715336 -1.49383078 159.8203125 -1.26953125 C161.53230769 -1.245243 163.24439408 -1.22675761 164.95651245 -1.21379089 C169.43391391 -1.16446735 173.90571304 -1.03709111 178.38092041 -0.89263916 C182.95890504 -0.75894193 187.53780776 -0.70013134 192.1171875 -0.63476562 C201.08056883 -0.4959063 210.03981629 -0.27445547 219 0 C218.06818702 1.41323133 217.13425312 2.82506434 216.19946289 4.23632812 C215.67961319 5.02269653 215.15976349 5.80906494 214.62416077 6.6192627 C212.06058859 10.3770138 209.25761363 13.93309112 206.4375 17.5 C205.1973238 19.08156654 203.95775454 20.66360917 202.71875 22.24609375 C202.09742188 23.03870605 201.47609375 23.83131836 200.8359375 24.64794922 C198.01114032 28.26684497 195.22205647 31.9125995 192.4375 35.5625 C191.90785645 36.25633789 191.37821289 36.95017578 190.83251953 37.66503906 C189.76213969 39.06769553 188.69198981 40.47052751 187.62207031 41.87353516 C184.85494834 45.50111378 182.0838169 49.12562566 179.3125 52.75 C178.77061035 53.45874268 178.2287207 54.16748535 177.67041016 54.89770508 C174.79924481 58.65166876 171.92527061 62.40342924 169.04370117 66.14941406 C167.83666547 67.7185844 166.63120703 69.2889676 165.42578125 70.859375 C163.70474672 73.08757429 161.97424368 75.30542818 160.23046875 77.515625 C159.54537231 78.39009277 159.54537231 78.39009277 158.84643555 79.28222656 C157.57868688 80.89961181 156.30515636 82.5124603 155.03125 84.125 C153.19123236 86.72933266 152.01628005 88.99534593 151 92 C151.36649658 92.44166504 151.73299316 92.88333008 152.1105957 93.33837891 C158.38722047 100.91027346 164.65084274 108.48461819 170.6875 116.25 C174.6270717 121.31526637 178.70376194 126.23557537 182.87792969 131.10864258 C186.17173341 134.97225798 189.32627966 138.92589784 192.4375 142.9375 C196.16578744 147.74166468 200.01358659 152.40789301 204 157 C208.48659823 162.16916854 212.77796995 167.45332721 216.97192383 172.86206055 C220.91993746 177.94219863 225.03435465 182.86626201 229.19921875 187.76953125 C231 190 231 190 231 191 C220.77765327 191.34901431 210.5567432 191.61478305 200.32963181 191.77718258 C195.57925409 191.85517168 190.8329775 191.9607297 186.08496094 192.1315918 C181.4939344 192.29575221 176.90682395 192.38448606 172.31308746 192.42315865 C170.56957574 192.45067573 168.82625644 192.50442356 167.08443451 192.58595085 C153.83038069 193.18109487 153.83038069 193.18109487 149.09170151 189.52946281 C145.56110095 185.96881895 142.76233565 181.99120141 140.10924721 177.7507534 C138.70494138 175.53430138 137.11820216 173.49396287 135.4765625 171.44921875 C134.52452192 170.19646599 133.57396567 168.94258362 132.625 167.6875 C131.54744902 166.27169835 130.469301 164.85635095 129.390625 163.44140625 C128.84341797 162.72355957 128.29621094 162.00571289 127.73242188 161.26611328 C124.62911312 157.20679651 121.50510495 153.16367431 118.375 149.125 C117.78283691 148.35760498 117.19067383 147.59020996 116.58056641 146.79956055 C116.02546387 146.08453369 115.47036133 145.36950684 114.8984375 144.6328125 C114.41036621 144.00262207 113.92229492 143.37243164 113.41943359 142.72314453 C112.03272036 141.03972142 110.56838844 139.5138055 109 138 C101.97485121 146.72711783 95.02156605 155.4986626 88.22216797 164.40283203 C86.97639923 166.03084224 85.72540251 167.65469779 84.47265625 169.27734375 C84.04807129 169.8276123 83.62348633 170.37788086 83.18603516 170.94482422 C79.72940863 175.4234334 79.72940863 175.4234334 78.43856812 177.01631165 C76.86832148 179.09068342 76.86832148 179.09068342 75.41226196 181.93132019 C70.51069995 190.08982234 70.51069995 190.08982234 66.13932228 191.67453194 C60.67868197 192.70362618 55.14530556 192.3768085 49.62109375 192.171875 C47.84039557 192.14946256 46.05962282 192.1323956 44.27882385 192.12042236 C39.61611674 192.07483829 34.95797449 191.95719794 30.29705811 191.82397461 C25.53134927 191.70068932 20.76489441 191.64630121 15.99804688 191.5859375 C6.6633706 191.45766032 -2.6679336 191.25316575 -12 191 C-9.73409905 187.57673973 -7.49007485 184.23843041 -4.86328125 181.08203125 C-4.29085693 180.39101318 -3.71843262 179.69999512 -3.12866211 178.98803711 C-2.22966187 177.91114624 -2.22966187 177.91114624 -1.3125 176.8125 C-0.04936384 175.28915812 1.21365719 173.76572076 2.4765625 172.2421875 C3.08532227 171.50967773 3.69408203 170.77716797 4.32128906 170.02246094 C10.67339865 162.3696285 16.92534139 154.63379654 23.19458008 146.91308594 C28.47670841 140.40938313 33.78278693 133.92548013 39.09375 127.4453125 C44.13578844 121.28891049 49.15776586 115.11648181 54.17358398 108.9387207 C58.76841041 103.28098812 63.37878581 97.63620956 68 92 C66.41684937 88.49563011 64.32279679 85.61946649 62 82.5625 C61.60264648 82.03809326 61.20529297 81.51368652 60.79589844 80.97338867 C57.13245085 76.14774886 53.43488492 71.34802627 49.734375 66.55078125 C46.6445068 62.54282629 43.57237314 58.52137216 40.5 54.5 C35.0144964 47.32210068 29.51248721 40.1571965 24 33 C21.57620032 29.85303386 19.15318307 26.7054908 16.734375 23.5546875 C14.66954611 20.86607597 12.59367642 18.18621501 10.515625 15.5078125 C9.32281349 13.96362136 8.13010418 12.41935127 6.9375 10.875 C6.36475342 10.13991211 5.79200684 9.40482422 5.2019043 8.64746094 C4.66992432 7.9568457 4.13794434 7.26623047 3.58984375 6.5546875 C3.11409912 5.94093262 2.63835449 5.32717773 2.14819336 4.69482422 C1 3 1 3 0 0 Z " fill="#478AC9" transform="translate(1723,933)"/>
<path d="M0 0 C21.78 0 43.56 0 66 0 C66 23.43 66 46.86 66 71 C79.2 71 92.4 71 106 71 C106 87.5 106 104 106 121 C92.8 121 79.6 121 66 121 C66.06202686 132.76878597 66.06202686 132.76878597 66.16015625 144.53710938 C66.20824494 149.34692566 66.25238075 154.15652027 66.27099609 158.96655273 C66.28629844 162.85072449 66.32097838 166.73431065 66.36830902 170.61821938 C66.38298456 172.08948955 66.39103294 173.56084339 66.39188385 175.03218651 C66.4042525 185.70932438 67.21800025 196.1045298 73.125 205.3125 C77.44640119 207.84897461 81.11332998 207.80502945 86 207 C88.71872387 206.07071868 91.27831124 205.01338934 93.87109375 203.77734375 C96 203 96 203 99 204 C100.0087659 206.51780007 100.81401744 208.91841753 101.55859375 211.515625 C101.78901871 212.28243591 102.01944366 213.04924683 102.2568512 213.83929443 C102.99535199 216.30624153 103.71669169 218.77783207 104.4375 221.25 C104.91878001 222.87013131 105.4011897 224.48992749 105.88476562 226.109375 C106.82577562 229.2642785 107.75892879 232.42134993 108.68701172 235.58007812 C110.16275614 240.58290451 111.72980091 245.55499186 113.32055664 250.52246094 C114 253 114 253 114 256 C91.41037509 266.44204541 64.39387917 272.30412537 40.046875 264.25390625 C24.20501465 257.73437141 13.89766391 247.83403268 6.8125 232.3125 C1.70256006 219.92557753 -0.17961646 206.87118324 -0.11352539 193.54272461 C-0.11367142 192.75137115 -0.11381744 191.9600177 -0.1139679 191.14468384 C-0.11327869 188.5638746 -0.10553343 185.98314017 -0.09765625 183.40234375 C-0.09578854 181.59916727 -0.0943663 179.79599028 -0.09336853 177.99281311 C-0.08957117 173.27302624 -0.07976496 168.55327069 -0.06866455 163.83349609 C-0.05839031 159.00684025 -0.05385808 154.18017928 -0.04882812 149.35351562 C-0.03813991 139.90232785 -0.02056597 130.45117145 0 121 C-8.91 121 -17.82 121 -27 121 C-27 104.5 -27 88 -27 71 C-18.09 71 -9.18 71 0 71 C0 47.57 0 24.14 0 0 Z " fill="#478AC9" transform="translate(839,862)"/>
<path d="M0 0 C21.78 0 43.56 0 66 0 C66 63.03 66 126.06 66 191 C44.22 191 22.44 191 0 191 C0 127.97 0 64.94 0 0 Z " fill="#488AC9" transform="translate(975,933)"/>
<path d="M0 0 C39.6 0 79.2 0 120 0 C120 18.48 120 36.96 120 56 C80.4 56 40.8 56 0 56 C0 37.52 0 19.04 0 0 Z " fill="#478AC9" transform="translate(1088,988)"/>
<path d="M0 0 C2.03993213 1.44382293 3.88741397 2.9753481 5.74609375 4.64453125 C6.65294922 5.41410156 6.65294922 5.41410156 7.578125 6.19921875 C15.88427048 13.76342095 20.16678254 23.57630607 20.9609375 34.63671875 C21.39329552 49.06018219 17.92094089 61.01774816 8.24609375 71.83203125 C-2.44423473 81.98577954 -15.47694121 84.24312384 -29.625 83.98828125 C-41.14058009 83.42089484 -50.8620345 77.61301405 -58.50390625 69.26953125 C-61.41978988 65.66616286 -63.45028493 61.90107757 -65.25390625 57.64453125 C-65.55425781 56.99097656 -65.85460938 56.33742188 -66.1640625 55.6640625 C-70.4833584 44.95622663 -69.17525911 31.32788947 -65.546875 20.54296875 C-61.11669402 10.38794203 -51.25531843 1.20456209 -41.25390625 -3.35546875 C-28.38752589 -7.86433796 -11.73384681 -7.05657685 0 0 Z " fill="#FEFEFE" transform="translate(1611.25390625,989.35546875)"/>
<path d="M0 0 C10.14756034 6.24914507 17.61084323 15.05284604 20.71484375 26.671875 C22.10959142 39.38422511 20.73553555 49.52120104 13.02734375 59.921875 C5.61779657 68.67861257 -3.2797569 73.30848935 -14.59765625 74.484375 C-26.37974327 75.11021334 -35.15964028 72.60286003 -44.2890625 65.00390625 C-52.96469993 56.81545364 -56.88945475 47.71780554 -57.47265625 35.859375 C-57.24587543 25.15944337 -53.92007611 16.88615984 -46.78515625 8.859375 C-33.33965439 -2.90543913 -16.97827032 -8.29117179 0 0 Z " fill="#488AC9" transform="translate(1027.28515625,818.328125)"/>
<path d="M0 0 C6.04939917 4.67251683 10.3182064 9.8485504 13 17 C13.495 21.455 13.495 21.455 14 26 C-9.76 26 -33.52 26 -58 26 C-55.64082474 11.84494845 -55.64082474 11.84494845 -49 5 C-48.4740625 4.42378906 -47.948125 3.84757813 -47.40625 3.25390625 C-35.48769918 -8.46015962 -13.70731122 -7.99748145 0 0 Z " fill="#FDFDFE" transform="translate(475,975)"/>
</svg>
